<mxfile>
    <diagram id="08hGiM8srI_0WGulaFI1" name="第 1 页">
        <mxGraphModel dx="825" dy="2166" grid="1" gridSize="13" guides="1" tooltips="1" connect="1" arrows="1" fold="1" page="1" pageScale="1" pageWidth="2336" pageHeight="1654" math="0" shadow="0">
            <root>
                <mxCell id="0"/>
                <mxCell id="1" parent="0"/>
                <mxCell id="293" style="edgeStyle=orthogonalEdgeStyle;rounded=0;orthogonalLoop=1;jettySize=auto;html=1;exitX=0.5;exitY=1;exitDx=0;exitDy=0;endArrow=classic;endFill=1;labelBackgroundColor=none;" edge="1" parent="1" source="2">
                    <mxGeometry relative="1" as="geometry">
                        <mxPoint x="1210" y="-1508" as="targetPoint"/>
                    </mxGeometry>
                </mxCell>
                <mxCell id="2" value="&lt;font style=&quot;font-size: 18px&quot;&gt;NOP&lt;/font&gt;" style="rounded=0;whiteSpace=wrap;html=1;labelBackgroundColor=none;" parent="1" vertex="1">
                    <mxGeometry x="1150" y="-1605" width="120" height="60" as="geometry"/>
                </mxCell>
                <mxCell id="6" value="" style="edgeStyle=orthogonalEdgeStyle;rounded=0;orthogonalLoop=1;jettySize=auto;html=1;labelBackgroundColor=none;" parent="1" source="3" target="5" edge="1">
                    <mxGeometry relative="1" as="geometry"/>
                </mxCell>
                <mxCell id="3" value="&lt;font style=&quot;font-size: 18px&quot;&gt;PC -&amp;gt; AR&lt;br&gt;PC+1&lt;/font&gt;" style="whiteSpace=wrap;html=1;rounded=0;labelBackgroundColor=none;" parent="1" vertex="1">
                    <mxGeometry x="1150" y="-1475" width="120" height="60" as="geometry"/>
                </mxCell>
                <mxCell id="8" value="" style="edgeStyle=orthogonalEdgeStyle;rounded=0;orthogonalLoop=1;jettySize=auto;html=1;labelBackgroundColor=none;" parent="1" source="5" target="7" edge="1">
                    <mxGeometry relative="1" as="geometry"/>
                </mxCell>
                <mxCell id="5" value="&lt;font style=&quot;font-size: 18px&quot;&gt;MEN -&amp;gt; IR&lt;/font&gt;" style="whiteSpace=wrap;html=1;rounded=0;labelBackgroundColor=none;" parent="1" vertex="1">
                    <mxGeometry x="1150" y="-1382" width="120" height="60" as="geometry"/>
                </mxCell>
                <mxCell id="11" style="edgeStyle=orthogonalEdgeStyle;rounded=0;orthogonalLoop=1;jettySize=auto;html=1;exitX=0.5;exitY=1;exitDx=0;exitDy=0;labelBackgroundColor=none;" parent="1" source="7" edge="1">
                    <mxGeometry relative="1" as="geometry">
                        <mxPoint x="1209.666666666667" y="-1172" as="targetPoint"/>
                    </mxGeometry>
                </mxCell>
                <mxCell id="7" value="&lt;font style=&quot;font-size: 18px&quot;&gt;P&amp;lt;1&amp;gt;&lt;/font&gt;" style="rhombus;whiteSpace=wrap;html=1;rounded=0;labelBackgroundColor=none;" parent="1" vertex="1">
                    <mxGeometry x="1140" y="-1292" width="140" height="80" as="geometry"/>
                </mxCell>
                <mxCell id="10" value="" style="endArrow=none;html=1;labelBackgroundColor=none;" parent="1" edge="1">
                    <mxGeometry width="50" height="50" relative="1" as="geometry">
                        <mxPoint x="140" y="-1162" as="sourcePoint"/>
                        <mxPoint x="2270" y="-1172" as="targetPoint"/>
                    </mxGeometry>
                </mxCell>
                <mxCell id="29" value="" style="edgeStyle=orthogonalEdgeStyle;rounded=0;orthogonalLoop=1;jettySize=auto;html=1;labelBackgroundColor=none;" parent="1" source="12" target="28" edge="1">
                    <mxGeometry relative="1" as="geometry"/>
                </mxCell>
                <mxCell id="12" value="&lt;font style=&quot;font-size: 18px&quot;&gt;RD-&amp;gt;A&lt;/font&gt;" style="rounded=0;whiteSpace=wrap;html=1;labelBackgroundColor=none;" parent="1" vertex="1">
                    <mxGeometry x="80" y="-1112" width="120" height="60" as="geometry"/>
                </mxCell>
                <mxCell id="13" value="" style="endArrow=classic;html=1;entryX=0.5;entryY=0;entryDx=0;entryDy=0;labelBackgroundColor=none;" parent="1" target="12" edge="1">
                    <mxGeometry width="50" height="50" relative="1" as="geometry">
                        <mxPoint x="140" y="-1162" as="sourcePoint"/>
                        <mxPoint x="190" y="-1212" as="targetPoint"/>
                    </mxGeometry>
                </mxCell>
                <mxCell id="14" value="&lt;font style=&quot;font-size: 18px&quot;&gt;ADD&lt;/font&gt;" style="text;html=1;strokeColor=none;fillColor=none;align=center;verticalAlign=middle;whiteSpace=wrap;rounded=0;labelBackgroundColor=none;" parent="1" vertex="1">
                    <mxGeometry x="95" y="-1232" width="90" height="60" as="geometry"/>
                </mxCell>
                <mxCell id="15" value="&lt;font style=&quot;font-size: 18px&quot;&gt;AND&lt;/font&gt;" style="text;html=1;strokeColor=none;fillColor=none;align=center;verticalAlign=middle;whiteSpace=wrap;rounded=0;labelBackgroundColor=none;" parent="1" vertex="1">
                    <mxGeometry x="230" y="-1232" width="90" height="60" as="geometry"/>
                </mxCell>
                <mxCell id="17" value="&lt;font style=&quot;font-size: 18px&quot;&gt;IN&lt;/font&gt;" style="text;html=1;strokeColor=none;fillColor=none;align=center;verticalAlign=middle;whiteSpace=wrap;rounded=0;labelBackgroundColor=none;" parent="1" vertex="1">
                    <mxGeometry x="360" y="-1232" width="90" height="60" as="geometry"/>
                </mxCell>
                <mxCell id="19" value="&lt;font style=&quot;font-size: 18px&quot;&gt;OUT&lt;/font&gt;" style="text;html=1;strokeColor=none;fillColor=none;align=center;verticalAlign=middle;whiteSpace=wrap;rounded=0;labelBackgroundColor=none;" parent="1" vertex="1">
                    <mxGeometry x="495" y="-1232" width="90" height="60" as="geometry"/>
                </mxCell>
                <mxCell id="21" value="&lt;font style=&quot;font-size: 18px&quot;&gt;MOV&lt;/font&gt;" style="text;html=1;strokeColor=none;fillColor=none;align=center;verticalAlign=middle;whiteSpace=wrap;rounded=0;labelBackgroundColor=none;" parent="1" vertex="1">
                    <mxGeometry x="625" y="-1232" width="90" height="60" as="geometry"/>
                </mxCell>
                <mxCell id="37" value="" style="edgeStyle=orthogonalEdgeStyle;rounded=0;orthogonalLoop=1;jettySize=auto;html=1;labelBackgroundColor=none;" parent="1" source="23" target="36" edge="1">
                    <mxGeometry relative="1" as="geometry"/>
                </mxCell>
                <mxCell id="23" value="&lt;font style=&quot;font-size: 18px&quot;&gt;RD -&amp;gt;A&lt;/font&gt;" style="rounded=0;whiteSpace=wrap;html=1;labelBackgroundColor=none;" parent="1" vertex="1">
                    <mxGeometry x="215" y="-1112" width="120" height="60" as="geometry"/>
                </mxCell>
                <mxCell id="41" value="" style="edgeStyle=orthogonalEdgeStyle;rounded=0;orthogonalLoop=1;jettySize=auto;html=1;labelBackgroundColor=none;" parent="1" source="25" target="40" edge="1">
                    <mxGeometry relative="1" as="geometry"/>
                </mxCell>
                <mxCell id="25" value="&lt;font style=&quot;font-size: 18px&quot;&gt;PC -&amp;gt;AR&lt;br&gt;PC+1&lt;/font&gt;" style="rounded=0;whiteSpace=wrap;html=1;labelBackgroundColor=none;" parent="1" vertex="1">
                    <mxGeometry x="345" y="-1112" width="120" height="60" as="geometry"/>
                </mxCell>
                <mxCell id="31" value="" style="edgeStyle=orthogonalEdgeStyle;rounded=0;orthogonalLoop=1;jettySize=auto;html=1;labelBackgroundColor=none;" parent="1" source="28" target="30" edge="1">
                    <mxGeometry relative="1" as="geometry"/>
                </mxCell>
                <mxCell id="28" value="&lt;font style=&quot;font-size: 18px&quot;&gt;RS-&amp;gt;B&lt;/font&gt;" style="rounded=0;whiteSpace=wrap;html=1;labelBackgroundColor=none;" parent="1" vertex="1">
                    <mxGeometry x="80" y="-972" width="120" height="60" as="geometry"/>
                </mxCell>
                <mxCell id="302" style="edgeStyle=orthogonalEdgeStyle;rounded=0;orthogonalLoop=1;jettySize=auto;html=1;exitX=0.5;exitY=1;exitDx=0;exitDy=0;entryX=0.5;entryY=0;entryDx=0;entryDy=0;endArrow=classic;endFill=1;labelBackgroundColor=none;" edge="1" parent="1" source="30" target="297">
                    <mxGeometry relative="1" as="geometry"/>
                </mxCell>
                <mxCell id="30" value="A+B-&amp;gt;RD" style="rounded=0;whiteSpace=wrap;html=1;labelBackgroundColor=none;" parent="1" vertex="1">
                    <mxGeometry x="80" y="-832" width="120" height="60" as="geometry"/>
                </mxCell>
                <mxCell id="39" value="" style="edgeStyle=orthogonalEdgeStyle;rounded=0;orthogonalLoop=1;jettySize=auto;html=1;labelBackgroundColor=none;" parent="1" source="36" target="38" edge="1">
                    <mxGeometry relative="1" as="geometry"/>
                </mxCell>
                <mxCell id="36" value="RS-&amp;gt;B" style="whiteSpace=wrap;html=1;rounded=0;fontSize=18;labelBackgroundColor=none;" parent="1" vertex="1">
                    <mxGeometry x="215" y="-972" width="120" height="60" as="geometry"/>
                </mxCell>
                <mxCell id="306" style="edgeStyle=orthogonalEdgeStyle;rounded=0;orthogonalLoop=1;jettySize=auto;html=1;exitX=0.5;exitY=1;exitDx=0;exitDy=0;entryX=0.5;entryY=0;entryDx=0;entryDy=0;endArrow=classic;endFill=1;labelBackgroundColor=none;" edge="1" parent="1" source="38" target="305">
                    <mxGeometry relative="1" as="geometry"/>
                </mxCell>
                <mxCell id="38" value="&lt;font style=&quot;font-size: 18px&quot;&gt;A&amp;amp;B- &amp;gt; RD&lt;/font&gt;" style="whiteSpace=wrap;html=1;rounded=0;fontSize=12;labelBackgroundColor=none;" parent="1" vertex="1">
                    <mxGeometry x="215" y="-832" width="120" height="60" as="geometry"/>
                </mxCell>
                <mxCell id="43" value="" style="edgeStyle=orthogonalEdgeStyle;rounded=0;orthogonalLoop=1;jettySize=auto;html=1;labelBackgroundColor=none;" parent="1" source="40" target="42" edge="1">
                    <mxGeometry relative="1" as="geometry"/>
                </mxCell>
                <mxCell id="40" value="&lt;font style=&quot;font-size: 18px&quot;&gt;MEM-&amp;gt;AR&lt;/font&gt;" style="whiteSpace=wrap;html=1;rounded=0;labelBackgroundColor=none;" parent="1" vertex="1">
                    <mxGeometry x="345" y="-972" width="120" height="60" as="geometry"/>
                </mxCell>
                <mxCell id="310" style="edgeStyle=orthogonalEdgeStyle;rounded=0;orthogonalLoop=1;jettySize=auto;html=1;exitX=0.5;exitY=1;exitDx=0;exitDy=0;entryX=0.5;entryY=0;entryDx=0;entryDy=0;endArrow=classic;endFill=1;labelBackgroundColor=none;" edge="1" parent="1" source="42" target="309">
                    <mxGeometry relative="1" as="geometry"/>
                </mxCell>
                <mxCell id="42" value="IO-&amp;gt;RD" style="whiteSpace=wrap;html=1;rounded=0;fontSize=18;labelBackgroundColor=none;" parent="1" vertex="1">
                    <mxGeometry x="345" y="-832" width="120" height="60" as="geometry"/>
                </mxCell>
                <mxCell id="44" value="" style="endArrow=classic;html=1;entryX=0.5;entryY=0;entryDx=0;entryDy=0;labelBackgroundColor=none;" parent="1" edge="1">
                    <mxGeometry width="50" height="50" relative="1" as="geometry">
                        <mxPoint x="274.17" y="-1162" as="sourcePoint"/>
                        <mxPoint x="274.17" y="-1112" as="targetPoint"/>
                    </mxGeometry>
                </mxCell>
                <mxCell id="89" value="" style="edgeStyle=orthogonalEdgeStyle;rounded=0;orthogonalLoop=1;jettySize=auto;html=1;labelBackgroundColor=none;" parent="1" source="45" target="88" edge="1">
                    <mxGeometry relative="1" as="geometry"/>
                </mxCell>
                <mxCell id="45" value="&lt;span style=&quot;font-size: 18px&quot;&gt;PC -&amp;gt;AR&lt;/span&gt;&lt;br style=&quot;font-size: 18px&quot;&gt;&lt;span style=&quot;font-size: 18px&quot;&gt;PC+1&lt;/span&gt;" style="rounded=0;whiteSpace=wrap;html=1;labelBackgroundColor=none;" parent="1" vertex="1">
                    <mxGeometry x="480" y="-1112" width="120" height="60" as="geometry"/>
                </mxCell>
                <mxCell id="320" style="edgeStyle=orthogonalEdgeStyle;rounded=0;orthogonalLoop=1;jettySize=auto;html=1;exitX=0.5;exitY=1;exitDx=0;exitDy=0;entryX=0.5;entryY=0;entryDx=0;entryDy=0;endArrow=classic;endFill=1;labelBackgroundColor=none;" edge="1" parent="1" source="46" target="319">
                    <mxGeometry relative="1" as="geometry"/>
                </mxCell>
                <mxCell id="46" value="&lt;font style=&quot;font-size: 18px&quot;&gt;RS -&amp;gt;RD&lt;/font&gt;" style="rounded=0;whiteSpace=wrap;html=1;labelBackgroundColor=none;" parent="1" vertex="1">
                    <mxGeometry x="610" y="-1112" width="120" height="60" as="geometry"/>
                </mxCell>
                <mxCell id="93" value="" style="edgeStyle=orthogonalEdgeStyle;rounded=0;orthogonalLoop=1;jettySize=auto;html=1;labelBackgroundColor=none;" parent="1" source="47" edge="1">
                    <mxGeometry relative="1" as="geometry">
                        <mxPoint x="810" y="-972" as="targetPoint"/>
                    </mxGeometry>
                </mxCell>
                <mxCell id="47" value="&lt;font style=&quot;font-size: 18px&quot;&gt;NOP&lt;/font&gt;" style="rounded=0;whiteSpace=wrap;html=1;labelBackgroundColor=none;" parent="1" vertex="1">
                    <mxGeometry x="750" y="-1112" width="120" height="60" as="geometry"/>
                </mxCell>
                <mxCell id="95" value="" style="edgeStyle=orthogonalEdgeStyle;rounded=0;orthogonalLoop=1;jettySize=auto;html=1;labelBackgroundColor=none;" parent="1" source="48" target="94" edge="1">
                    <mxGeometry relative="1" as="geometry"/>
                </mxCell>
                <mxCell id="48" value="&lt;span style=&quot;font-size: 18px&quot;&gt;PC -&amp;gt;AR&lt;/span&gt;&lt;br style=&quot;font-size: 18px&quot;&gt;&lt;span style=&quot;font-size: 18px&quot;&gt;PC+1&lt;/span&gt;" style="rounded=0;whiteSpace=wrap;html=1;labelBackgroundColor=none;" parent="1" vertex="1">
                    <mxGeometry x="905" y="-1112" width="120" height="60" as="geometry"/>
                </mxCell>
                <mxCell id="49" value="&lt;font style=&quot;font-size: 18px&quot;&gt;HLT&lt;/font&gt;" style="text;html=1;strokeColor=none;fillColor=none;align=center;verticalAlign=middle;whiteSpace=wrap;rounded=0;labelBackgroundColor=none;" parent="1" vertex="1">
                    <mxGeometry x="770" y="-1232" width="90" height="60" as="geometry"/>
                </mxCell>
                <mxCell id="50" value="&lt;font style=&quot;font-size: 18px&quot;&gt;LDI&lt;/font&gt;" style="text;html=1;strokeColor=none;fillColor=none;align=center;verticalAlign=middle;whiteSpace=wrap;rounded=0;labelBackgroundColor=none;" parent="1" vertex="1">
                    <mxGeometry x="920" y="-1232" width="90" height="60" as="geometry"/>
                </mxCell>
                <mxCell id="51" value="&lt;font style=&quot;font-size: 18px&quot;&gt;DEC&lt;/font&gt;" style="text;html=1;strokeColor=none;fillColor=none;align=center;verticalAlign=middle;whiteSpace=wrap;rounded=0;labelBackgroundColor=none;" parent="1" vertex="1">
                    <mxGeometry x="1060" y="-1232" width="90" height="60" as="geometry"/>
                </mxCell>
                <mxCell id="97" value="" style="edgeStyle=orthogonalEdgeStyle;rounded=0;orthogonalLoop=1;jettySize=auto;html=1;labelBackgroundColor=none;" parent="1" source="52" target="96" edge="1">
                    <mxGeometry relative="1" as="geometry"/>
                </mxCell>
                <mxCell id="52" value="&lt;font style=&quot;font-size: 18px&quot;&gt;RD -&amp;gt; A&lt;/font&gt;" style="rounded=0;whiteSpace=wrap;html=1;labelBackgroundColor=none;" parent="1" vertex="1">
                    <mxGeometry x="1040" y="-1112" width="120" height="60" as="geometry"/>
                </mxCell>
                <mxCell id="54" value="&lt;font style=&quot;font-size: 18px&quot;&gt;SUB&lt;/font&gt;" style="text;html=1;strokeColor=none;fillColor=none;align=center;verticalAlign=middle;whiteSpace=wrap;rounded=0;labelBackgroundColor=none;" parent="1" vertex="1">
                    <mxGeometry x="1270" y="-1232" width="90" height="60" as="geometry"/>
                </mxCell>
                <mxCell id="55" value="&lt;font style=&quot;font-size: 18px&quot;&gt;OR&lt;/font&gt;" style="text;html=1;strokeColor=none;fillColor=none;align=center;verticalAlign=middle;whiteSpace=wrap;rounded=0;labelBackgroundColor=none;" parent="1" vertex="1">
                    <mxGeometry x="1390" y="-1232" width="90" height="60" as="geometry"/>
                </mxCell>
                <mxCell id="99" value="" style="edgeStyle=orthogonalEdgeStyle;rounded=0;orthogonalLoop=1;jettySize=auto;html=1;labelBackgroundColor=none;" parent="1" source="56" target="98" edge="1">
                    <mxGeometry relative="1" as="geometry"/>
                </mxCell>
                <mxCell id="56" value="&lt;font style=&quot;font-size: 18px&quot;&gt;RD -&amp;gt; A&lt;/font&gt;" style="rounded=0;whiteSpace=wrap;html=1;labelBackgroundColor=none;" parent="1" vertex="1">
                    <mxGeometry x="1255" y="-1122" width="120" height="60" as="geometry"/>
                </mxCell>
                <mxCell id="106" style="edgeStyle=orthogonalEdgeStyle;rounded=0;orthogonalLoop=1;jettySize=auto;html=1;entryX=0.5;entryY=0;entryDx=0;entryDy=0;labelBackgroundColor=none;" parent="1" source="57" target="105" edge="1">
                    <mxGeometry relative="1" as="geometry"/>
                </mxCell>
                <mxCell id="57" value="&lt;span style=&quot;font-size: 18px&quot;&gt;RD -&amp;gt; A&lt;/span&gt;" style="rounded=0;whiteSpace=wrap;html=1;labelBackgroundColor=none;" parent="1" vertex="1">
                    <mxGeometry x="1380" y="-1122" width="120" height="60" as="geometry"/>
                </mxCell>
                <mxCell id="108" value="" style="edgeStyle=orthogonalEdgeStyle;rounded=0;orthogonalLoop=1;jettySize=auto;html=1;labelBackgroundColor=none;" parent="1" source="59" target="107" edge="1">
                    <mxGeometry relative="1" as="geometry"/>
                </mxCell>
                <mxCell id="59" value="&lt;span style=&quot;font-size: 18px&quot;&gt;RD -&amp;gt; A&lt;/span&gt;" style="rounded=0;whiteSpace=wrap;html=1;labelBackgroundColor=none;" parent="1" vertex="1">
                    <mxGeometry x="1510" y="-1122" width="120" height="60" as="geometry"/>
                </mxCell>
                <mxCell id="273" style="edgeStyle=orthogonalEdgeStyle;rounded=0;orthogonalLoop=1;jettySize=auto;html=1;exitX=0.5;exitY=1;exitDx=0;exitDy=0;entryX=0.5;entryY=0;entryDx=0;entryDy=0;labelBackgroundColor=none;" edge="1" parent="1" source="60" target="272">
                    <mxGeometry relative="1" as="geometry"/>
                </mxCell>
                <mxCell id="60" value="&lt;font style=&quot;font-size: 18px&quot;&gt;RD-&amp;gt;A&lt;/font&gt;" style="rounded=0;whiteSpace=wrap;html=1;labelBackgroundColor=none;" parent="1" vertex="1">
                    <mxGeometry x="1650" y="-1122" width="120" height="60" as="geometry"/>
                </mxCell>
                <mxCell id="119" value="" style="edgeStyle=orthogonalEdgeStyle;rounded=0;orthogonalLoop=1;jettySize=auto;html=1;labelBackgroundColor=none;" parent="1" source="61" target="118" edge="1">
                    <mxGeometry relative="1" as="geometry"/>
                </mxCell>
                <mxCell id="61" value="&lt;span style=&quot;font-size: 18px&quot;&gt;PC -&amp;gt;AR&lt;/span&gt;&lt;br style=&quot;font-size: 18px&quot;&gt;&lt;span style=&quot;font-size: 18px&quot;&gt;PC+1&lt;/span&gt;" style="rounded=0;whiteSpace=wrap;html=1;labelBackgroundColor=none;" parent="1" vertex="1">
                    <mxGeometry x="1790" y="-1122" width="120" height="60" as="geometry"/>
                </mxCell>
                <mxCell id="123" value="" style="edgeStyle=orthogonalEdgeStyle;rounded=0;orthogonalLoop=1;jettySize=auto;html=1;labelBackgroundColor=none;" parent="1" source="62" target="122" edge="1">
                    <mxGeometry relative="1" as="geometry"/>
                </mxCell>
                <mxCell id="62" value="&lt;span style=&quot;font-size: 18px&quot;&gt;PC -&amp;gt;AR&lt;/span&gt;&lt;br style=&quot;font-size: 18px&quot;&gt;&lt;span style=&quot;font-size: 18px&quot;&gt;PC+1&lt;/span&gt;" style="rounded=0;whiteSpace=wrap;html=1;labelBackgroundColor=none;" parent="1" vertex="1">
                    <mxGeometry x="1930" y="-1122" width="120" height="60" as="geometry"/>
                </mxCell>
                <mxCell id="129" value="" style="edgeStyle=orthogonalEdgeStyle;rounded=0;orthogonalLoop=1;jettySize=auto;html=1;labelBackgroundColor=none;" parent="1" source="63" target="128" edge="1">
                    <mxGeometry relative="1" as="geometry"/>
                </mxCell>
                <mxCell id="63" value="&lt;span style=&quot;font-size: 18px&quot;&gt;PC -&amp;gt;AR&lt;/span&gt;&lt;br style=&quot;font-size: 18px&quot;&gt;&lt;span style=&quot;font-size: 18px&quot;&gt;PC+1&lt;/span&gt;" style="rounded=0;whiteSpace=wrap;html=1;labelBackgroundColor=none;" parent="1" vertex="1">
                    <mxGeometry x="2070" y="-1122" width="120" height="60" as="geometry"/>
                </mxCell>
                <mxCell id="137" value="" style="edgeStyle=orthogonalEdgeStyle;rounded=0;orthogonalLoop=1;jettySize=auto;html=1;labelBackgroundColor=none;" parent="1" source="64" target="136" edge="1">
                    <mxGeometry relative="1" as="geometry"/>
                </mxCell>
                <mxCell id="64" value="&lt;span style=&quot;font-size: 18px&quot;&gt;PC -&amp;gt;AR&lt;/span&gt;&lt;br style=&quot;font-size: 18px&quot;&gt;&lt;span style=&quot;font-size: 18px&quot;&gt;PC+1&lt;/span&gt;" style="rounded=0;whiteSpace=wrap;html=1;labelBackgroundColor=none;" parent="1" vertex="1">
                    <mxGeometry x="2210" y="-1122" width="120" height="60" as="geometry"/>
                </mxCell>
                <mxCell id="65" value="" style="endArrow=classic;html=1;entryX=0.5;entryY=0;entryDx=0;entryDy=0;labelBackgroundColor=none;" parent="1" edge="1">
                    <mxGeometry width="50" height="50" relative="1" as="geometry">
                        <mxPoint x="400" y="-1162" as="sourcePoint"/>
                        <mxPoint x="400" y="-1112" as="targetPoint"/>
                    </mxGeometry>
                </mxCell>
                <mxCell id="66" value="" style="endArrow=classic;html=1;entryX=0.5;entryY=0;entryDx=0;entryDy=0;labelBackgroundColor=none;" parent="1" edge="1">
                    <mxGeometry width="50" height="50" relative="1" as="geometry">
                        <mxPoint x="539.1700000000001" y="-1162" as="sourcePoint"/>
                        <mxPoint x="539.1700000000001" y="-1112" as="targetPoint"/>
                    </mxGeometry>
                </mxCell>
                <mxCell id="67" value="" style="endArrow=classic;html=1;entryX=0.5;entryY=0;entryDx=0;entryDy=0;labelBackgroundColor=none;" parent="1" edge="1">
                    <mxGeometry width="50" height="50" relative="1" as="geometry">
                        <mxPoint x="669.1700000000001" y="-1162" as="sourcePoint"/>
                        <mxPoint x="669.1700000000001" y="-1112" as="targetPoint"/>
                    </mxGeometry>
                </mxCell>
                <mxCell id="68" value="" style="endArrow=classic;html=1;entryX=0.5;entryY=0;entryDx=0;entryDy=0;labelBackgroundColor=none;" parent="1" edge="1">
                    <mxGeometry width="50" height="50" relative="1" as="geometry">
                        <mxPoint x="814.1700000000001" y="-1162" as="sourcePoint"/>
                        <mxPoint x="814.1700000000001" y="-1112" as="targetPoint"/>
                    </mxGeometry>
                </mxCell>
                <mxCell id="69" value="" style="endArrow=classic;html=1;entryX=0.5;entryY=0;entryDx=0;entryDy=0;labelBackgroundColor=none;" parent="1" edge="1">
                    <mxGeometry width="50" height="50" relative="1" as="geometry">
                        <mxPoint x="964.1700000000001" y="-1162" as="sourcePoint"/>
                        <mxPoint x="964.1700000000001" y="-1112" as="targetPoint"/>
                    </mxGeometry>
                </mxCell>
                <mxCell id="70" value="" style="endArrow=classic;html=1;entryX=0.5;entryY=0;entryDx=0;entryDy=0;labelBackgroundColor=none;" parent="1" edge="1">
                    <mxGeometry width="50" height="50" relative="1" as="geometry">
                        <mxPoint x="1104.17" y="-1162" as="sourcePoint"/>
                        <mxPoint x="1104.17" y="-1112" as="targetPoint"/>
                    </mxGeometry>
                </mxCell>
                <mxCell id="71" value="" style="endArrow=classic;html=1;entryX=0.5;entryY=0;entryDx=0;entryDy=0;labelBackgroundColor=none;" parent="1" edge="1">
                    <mxGeometry width="50" height="50" relative="1" as="geometry">
                        <mxPoint x="1314.17" y="-1172" as="sourcePoint"/>
                        <mxPoint x="1314.17" y="-1122" as="targetPoint"/>
                    </mxGeometry>
                </mxCell>
                <mxCell id="72" value="" style="endArrow=classic;html=1;entryX=0.5;entryY=0;entryDx=0;entryDy=0;labelBackgroundColor=none;" parent="1" edge="1">
                    <mxGeometry width="50" height="50" relative="1" as="geometry">
                        <mxPoint x="1439.17" y="-1172" as="sourcePoint"/>
                        <mxPoint x="1439.17" y="-1122" as="targetPoint"/>
                    </mxGeometry>
                </mxCell>
                <mxCell id="73" value="" style="endArrow=classic;html=1;entryX=0.5;entryY=0;entryDx=0;entryDy=0;labelBackgroundColor=none;" parent="1" edge="1">
                    <mxGeometry width="50" height="50" relative="1" as="geometry">
                        <mxPoint x="1569.17" y="-1172" as="sourcePoint"/>
                        <mxPoint x="1569.17" y="-1122" as="targetPoint"/>
                    </mxGeometry>
                </mxCell>
                <mxCell id="74" value="" style="endArrow=classic;html=1;entryX=0.5;entryY=0;entryDx=0;entryDy=0;labelBackgroundColor=none;" parent="1" edge="1">
                    <mxGeometry width="50" height="50" relative="1" as="geometry">
                        <mxPoint x="1709.17" y="-1172" as="sourcePoint"/>
                        <mxPoint x="1709.17" y="-1122" as="targetPoint"/>
                    </mxGeometry>
                </mxCell>
                <mxCell id="75" value="" style="endArrow=classic;html=1;entryX=0.5;entryY=0;entryDx=0;entryDy=0;labelBackgroundColor=none;" parent="1" edge="1">
                    <mxGeometry width="50" height="50" relative="1" as="geometry">
                        <mxPoint x="1849.17" y="-1172" as="sourcePoint"/>
                        <mxPoint x="1849.17" y="-1122" as="targetPoint"/>
                    </mxGeometry>
                </mxCell>
                <mxCell id="76" value="" style="endArrow=classic;html=1;entryX=0.5;entryY=0;entryDx=0;entryDy=0;labelBackgroundColor=none;" parent="1" edge="1">
                    <mxGeometry width="50" height="50" relative="1" as="geometry">
                        <mxPoint x="1990" y="-1172" as="sourcePoint"/>
                        <mxPoint x="1990" y="-1122" as="targetPoint"/>
                    </mxGeometry>
                </mxCell>
                <mxCell id="77" value="" style="endArrow=classic;html=1;entryX=0.5;entryY=0;entryDx=0;entryDy=0;labelBackgroundColor=none;" parent="1" edge="1">
                    <mxGeometry width="50" height="50" relative="1" as="geometry">
                        <mxPoint x="2130" y="-1172" as="sourcePoint"/>
                        <mxPoint x="2130" y="-1122" as="targetPoint"/>
                    </mxGeometry>
                </mxCell>
                <mxCell id="78" value="" style="endArrow=classic;html=1;entryX=0.5;entryY=0;entryDx=0;entryDy=0;labelBackgroundColor=none;" parent="1" edge="1">
                    <mxGeometry width="50" height="50" relative="1" as="geometry">
                        <mxPoint x="2270" y="-1172" as="sourcePoint"/>
                        <mxPoint x="2270" y="-1122" as="targetPoint"/>
                    </mxGeometry>
                </mxCell>
                <mxCell id="82" value="&lt;font style=&quot;font-size: 18px&quot;&gt;SAR&lt;/font&gt;" style="text;html=1;strokeColor=none;fillColor=none;align=center;verticalAlign=middle;whiteSpace=wrap;rounded=0;labelBackgroundColor=none;" parent="1" vertex="1">
                    <mxGeometry x="1525" y="-1232" width="90" height="60" as="geometry"/>
                </mxCell>
                <mxCell id="83" value="&lt;span style=&quot;font-size: 18px&quot;&gt;SHR&lt;/span&gt;" style="text;html=1;strokeColor=none;fillColor=none;align=center;verticalAlign=middle;whiteSpace=wrap;rounded=0;labelBackgroundColor=none;" parent="1" vertex="1">
                    <mxGeometry x="1665" y="-1232" width="90" height="60" as="geometry"/>
                </mxCell>
                <mxCell id="84" value="&lt;font style=&quot;font-size: 18px&quot;&gt;直接&lt;/font&gt;" style="text;html=1;strokeColor=none;fillColor=none;align=center;verticalAlign=middle;whiteSpace=wrap;rounded=0;labelBackgroundColor=none;" parent="1" vertex="1">
                    <mxGeometry x="1805" y="-1232" width="90" height="60" as="geometry"/>
                </mxCell>
                <mxCell id="85" value="&lt;font style=&quot;font-size: 18px&quot;&gt;间接&lt;/font&gt;" style="text;html=1;strokeColor=none;fillColor=none;align=center;verticalAlign=middle;whiteSpace=wrap;rounded=0;labelBackgroundColor=none;" parent="1" vertex="1">
                    <mxGeometry x="1945" y="-1232" width="90" height="60" as="geometry"/>
                </mxCell>
                <mxCell id="86" value="&lt;font style=&quot;font-size: 18px&quot;&gt;变质&lt;/font&gt;" style="text;html=1;strokeColor=none;fillColor=none;align=center;verticalAlign=middle;whiteSpace=wrap;rounded=0;labelBackgroundColor=none;" parent="1" vertex="1">
                    <mxGeometry x="2085" y="-1232" width="90" height="60" as="geometry"/>
                </mxCell>
                <mxCell id="87" value="&lt;font style=&quot;font-size: 18px&quot;&gt;相对&lt;/font&gt;" style="text;html=1;strokeColor=none;fillColor=none;align=center;verticalAlign=middle;whiteSpace=wrap;rounded=0;labelBackgroundColor=none;" parent="1" vertex="1">
                    <mxGeometry x="2225" y="-1232" width="90" height="60" as="geometry"/>
                </mxCell>
                <mxCell id="91" value="" style="edgeStyle=orthogonalEdgeStyle;rounded=0;orthogonalLoop=1;jettySize=auto;html=1;labelBackgroundColor=none;" parent="1" source="88" target="90" edge="1">
                    <mxGeometry relative="1" as="geometry"/>
                </mxCell>
                <mxCell id="88" value="&lt;font style=&quot;font-size: 18px&quot;&gt;MEM -&amp;gt; AR&lt;/font&gt;" style="whiteSpace=wrap;html=1;rounded=0;labelBackgroundColor=none;" parent="1" vertex="1">
                    <mxGeometry x="480" y="-972" width="120" height="60" as="geometry"/>
                </mxCell>
                <mxCell id="316" style="edgeStyle=orthogonalEdgeStyle;rounded=0;orthogonalLoop=1;jettySize=auto;html=1;exitX=0.5;exitY=1;exitDx=0;exitDy=0;entryX=0.5;entryY=0;entryDx=0;entryDy=0;endArrow=classic;endFill=1;labelBackgroundColor=none;" edge="1" parent="1" source="90" target="313">
                    <mxGeometry relative="1" as="geometry"/>
                </mxCell>
                <mxCell id="90" value="&lt;font style=&quot;font-size: 18px&quot;&gt;RS -&amp;gt; IO&lt;/font&gt;" style="whiteSpace=wrap;html=1;rounded=0;labelBackgroundColor=none;" parent="1" vertex="1">
                    <mxGeometry x="480" y="-832" width="120" height="60" as="geometry"/>
                </mxCell>
                <mxCell id="324" style="edgeStyle=orthogonalEdgeStyle;rounded=0;orthogonalLoop=1;jettySize=auto;html=1;exitX=0.5;exitY=1;exitDx=0;exitDy=0;entryX=0.5;entryY=0;entryDx=0;entryDy=0;endArrow=classic;endFill=1;labelBackgroundColor=none;" edge="1" parent="1" source="94" target="323">
                    <mxGeometry relative="1" as="geometry"/>
                </mxCell>
                <mxCell id="94" value="&lt;font style=&quot;font-size: 18px&quot;&gt;MEM -&amp;gt; RD&lt;/font&gt;" style="whiteSpace=wrap;html=1;rounded=0;labelBackgroundColor=none;" parent="1" vertex="1">
                    <mxGeometry x="905" y="-972" width="120" height="60" as="geometry"/>
                </mxCell>
                <mxCell id="328" style="edgeStyle=orthogonalEdgeStyle;rounded=0;orthogonalLoop=1;jettySize=auto;html=1;exitX=0.5;exitY=1;exitDx=0;exitDy=0;entryX=0.5;entryY=0;entryDx=0;entryDy=0;endArrow=classic;endFill=1;labelBackgroundColor=none;" edge="1" parent="1" source="96" target="327">
                    <mxGeometry relative="1" as="geometry"/>
                </mxCell>
                <mxCell id="96" value="&lt;font style=&quot;font-size: 18px&quot;&gt;A-1 -&amp;gt; RD&lt;/font&gt;" style="rounded=0;whiteSpace=wrap;html=1;labelBackgroundColor=none;" parent="1" vertex="1">
                    <mxGeometry x="1040" y="-972" width="120" height="60" as="geometry"/>
                </mxCell>
                <mxCell id="112" value="" style="edgeStyle=orthogonalEdgeStyle;rounded=0;orthogonalLoop=1;jettySize=auto;html=1;labelBackgroundColor=none;" parent="1" source="98" target="111" edge="1">
                    <mxGeometry relative="1" as="geometry"/>
                </mxCell>
                <mxCell id="98" value="&lt;font style=&quot;font-size: 18px&quot;&gt;RS -&amp;gt; B&lt;/font&gt;" style="rounded=0;whiteSpace=wrap;html=1;labelBackgroundColor=none;" parent="1" vertex="1">
                    <mxGeometry x="1255" y="-982" width="120" height="60" as="geometry"/>
                </mxCell>
                <mxCell id="115" value="" style="edgeStyle=orthogonalEdgeStyle;rounded=0;orthogonalLoop=1;jettySize=auto;html=1;labelBackgroundColor=none;" parent="1" source="105" target="114" edge="1">
                    <mxGeometry relative="1" as="geometry"/>
                </mxCell>
                <mxCell id="105" value="&lt;span style=&quot;font-size: 18px&quot;&gt;RS -&amp;gt; B&lt;/span&gt;" style="rounded=0;whiteSpace=wrap;html=1;labelBackgroundColor=none;" parent="1" vertex="1">
                    <mxGeometry x="1380" y="-982" width="120" height="60" as="geometry"/>
                </mxCell>
                <mxCell id="117" value="" style="edgeStyle=orthogonalEdgeStyle;rounded=0;orthogonalLoop=1;jettySize=auto;html=1;labelBackgroundColor=none;" parent="1" source="107" target="116" edge="1">
                    <mxGeometry relative="1" as="geometry"/>
                </mxCell>
                <mxCell id="107" value="&lt;span style=&quot;font-size: 18px&quot;&gt;RS -&amp;gt; B&lt;/span&gt;" style="rounded=0;whiteSpace=wrap;html=1;labelBackgroundColor=none;" parent="1" vertex="1">
                    <mxGeometry x="1510" y="-982" width="120" height="60" as="geometry"/>
                </mxCell>
                <mxCell id="333" style="edgeStyle=orthogonalEdgeStyle;rounded=0;orthogonalLoop=1;jettySize=auto;html=1;exitX=0.5;exitY=1;exitDx=0;exitDy=0;entryX=0.5;entryY=0;entryDx=0;entryDy=0;endArrow=classic;endFill=1;labelBackgroundColor=none;" edge="1" parent="1" source="111" target="331">
                    <mxGeometry relative="1" as="geometry"/>
                </mxCell>
                <mxCell id="111" value="&lt;span style=&quot;font-size: 18px&quot;&gt;A - B -&amp;gt; RD&lt;/span&gt;" style="rounded=0;whiteSpace=wrap;html=1;labelBackgroundColor=none;" parent="1" vertex="1">
                    <mxGeometry x="1255" y="-842" width="120" height="60" as="geometry"/>
                </mxCell>
                <mxCell id="337" style="edgeStyle=orthogonalEdgeStyle;rounded=0;orthogonalLoop=1;jettySize=auto;html=1;exitX=0.5;exitY=1;exitDx=0;exitDy=0;entryX=0.5;entryY=0;entryDx=0;entryDy=0;endArrow=classic;endFill=1;labelBackgroundColor=none;" edge="1" parent="1" source="114" target="336">
                    <mxGeometry relative="1" as="geometry"/>
                </mxCell>
                <mxCell id="114" value="&lt;span style=&quot;font-size: 18px&quot;&gt;A OR B -&amp;gt; RD&lt;/span&gt;" style="rounded=0;whiteSpace=wrap;html=1;labelBackgroundColor=none;" parent="1" vertex="1">
                    <mxGeometry x="1380" y="-842" width="120" height="60" as="geometry"/>
                </mxCell>
                <mxCell id="342" style="edgeStyle=orthogonalEdgeStyle;rounded=0;orthogonalLoop=1;jettySize=auto;html=1;exitX=0.5;exitY=1;exitDx=0;exitDy=0;entryX=0.75;entryY=0;entryDx=0;entryDy=0;endArrow=classic;endFill=1;labelBackgroundColor=none;" edge="1" parent="1" source="116" target="340">
                    <mxGeometry relative="1" as="geometry"/>
                </mxCell>
                <mxCell id="116" value="&lt;font style=&quot;font-size: 18px&quot;&gt;A右移 -&amp;gt; RD&lt;/font&gt;" style="rounded=0;whiteSpace=wrap;html=1;labelBackgroundColor=none;" parent="1" vertex="1">
                    <mxGeometry x="1510" y="-842" width="120" height="60" as="geometry"/>
                </mxCell>
                <mxCell id="121" value="" style="edgeStyle=orthogonalEdgeStyle;rounded=0;orthogonalLoop=1;jettySize=auto;html=1;labelBackgroundColor=none;" parent="1" source="118" target="120" edge="1">
                    <mxGeometry relative="1" as="geometry"/>
                </mxCell>
                <mxCell id="118" value="&lt;font style=&quot;font-size: 18px&quot;&gt;MEM -&amp;gt; A&lt;/font&gt;" style="whiteSpace=wrap;html=1;rounded=0;labelBackgroundColor=none;" parent="1" vertex="1">
                    <mxGeometry x="1790" y="-982" width="120" height="60" as="geometry"/>
                </mxCell>
                <mxCell id="147" style="edgeStyle=orthogonalEdgeStyle;rounded=0;orthogonalLoop=1;jettySize=auto;html=1;exitX=0.5;exitY=1;exitDx=0;exitDy=0;labelBackgroundColor=none;" parent="1" source="120" edge="1">
                    <mxGeometry relative="1" as="geometry">
                        <mxPoint x="1849.666666666667" y="-442" as="targetPoint"/>
                    </mxGeometry>
                </mxCell>
                <mxCell id="120" value="&lt;span style=&quot;font-size: 18px&quot;&gt;MEM -&amp;gt; AR&lt;/span&gt;" style="whiteSpace=wrap;html=1;rounded=0;labelBackgroundColor=none;" parent="1" vertex="1">
                    <mxGeometry x="1790" y="-842" width="120" height="60" as="geometry"/>
                </mxCell>
                <mxCell id="125" value="" style="edgeStyle=orthogonalEdgeStyle;rounded=0;orthogonalLoop=1;jettySize=auto;html=1;labelBackgroundColor=none;" parent="1" source="122" target="124" edge="1">
                    <mxGeometry relative="1" as="geometry"/>
                </mxCell>
                <mxCell id="122" value="&lt;span style=&quot;font-size: 18px&quot;&gt;MEM -&amp;gt; AR&lt;/span&gt;" style="whiteSpace=wrap;html=1;rounded=0;labelBackgroundColor=none;" parent="1" vertex="1">
                    <mxGeometry x="1930" y="-982" width="120" height="60" as="geometry"/>
                </mxCell>
                <mxCell id="127" value="" style="edgeStyle=orthogonalEdgeStyle;rounded=0;orthogonalLoop=1;jettySize=auto;html=1;labelBackgroundColor=none;" parent="1" source="124" target="126" edge="1">
                    <mxGeometry relative="1" as="geometry"/>
                </mxCell>
                <mxCell id="124" value="&lt;span style=&quot;font-size: 18px&quot;&gt;MEM -&amp;gt; A&lt;/span&gt;" style="whiteSpace=wrap;html=1;rounded=0;labelBackgroundColor=none;" parent="1" vertex="1">
                    <mxGeometry x="1930" y="-842" width="120" height="60" as="geometry"/>
                </mxCell>
                <mxCell id="148" style="edgeStyle=orthogonalEdgeStyle;rounded=0;orthogonalLoop=1;jettySize=auto;html=1;exitX=0.5;exitY=1;exitDx=0;exitDy=0;labelBackgroundColor=none;" parent="1" source="126" edge="1">
                    <mxGeometry relative="1" as="geometry">
                        <mxPoint x="1989.666666666667" y="-442" as="targetPoint"/>
                    </mxGeometry>
                </mxCell>
                <mxCell id="126" value="&lt;span style=&quot;font-size: 18px&quot;&gt;MEM -&amp;gt; AR&lt;/span&gt;" style="whiteSpace=wrap;html=1;rounded=0;labelBackgroundColor=none;" parent="1" vertex="1">
                    <mxGeometry x="1930" y="-702" width="120" height="60" as="geometry"/>
                </mxCell>
                <mxCell id="131" value="" style="edgeStyle=orthogonalEdgeStyle;rounded=0;orthogonalLoop=1;jettySize=auto;html=1;labelBackgroundColor=none;" parent="1" source="128" target="130" edge="1">
                    <mxGeometry relative="1" as="geometry"/>
                </mxCell>
                <mxCell id="128" value="&lt;span style=&quot;font-size: 18px&quot;&gt;MEM -&amp;gt; A&lt;/span&gt;" style="whiteSpace=wrap;html=1;rounded=0;labelBackgroundColor=none;" parent="1" vertex="1">
                    <mxGeometry x="2070" y="-982" width="120" height="60" as="geometry"/>
                </mxCell>
                <mxCell id="133" value="" style="edgeStyle=orthogonalEdgeStyle;rounded=0;orthogonalLoop=1;jettySize=auto;html=1;labelBackgroundColor=none;" parent="1" source="130" target="132" edge="1">
                    <mxGeometry relative="1" as="geometry"/>
                </mxCell>
                <mxCell id="130" value="&lt;font style=&quot;font-size: 18px&quot;&gt;RI -&amp;gt;B&lt;/font&gt;" style="whiteSpace=wrap;html=1;rounded=0;labelBackgroundColor=none;" parent="1" vertex="1">
                    <mxGeometry x="2070" y="-842" width="120" height="60" as="geometry"/>
                </mxCell>
                <mxCell id="135" value="" style="edgeStyle=orthogonalEdgeStyle;rounded=0;orthogonalLoop=1;jettySize=auto;html=1;labelBackgroundColor=none;" parent="1" source="132" target="134" edge="1">
                    <mxGeometry relative="1" as="geometry"/>
                </mxCell>
                <mxCell id="132" value="&lt;font style=&quot;font-size: 18px&quot;&gt;A+B -&amp;gt;AR&lt;/font&gt;" style="whiteSpace=wrap;html=1;rounded=0;labelBackgroundColor=none;" parent="1" vertex="1">
                    <mxGeometry x="2070" y="-702" width="120" height="60" as="geometry"/>
                </mxCell>
                <mxCell id="150" style="edgeStyle=orthogonalEdgeStyle;rounded=0;orthogonalLoop=1;jettySize=auto;html=1;exitX=0.5;exitY=1;exitDx=0;exitDy=0;labelBackgroundColor=none;" parent="1" source="134" edge="1">
                    <mxGeometry relative="1" as="geometry">
                        <mxPoint x="2129.666666666667" y="-442" as="targetPoint"/>
                    </mxGeometry>
                </mxCell>
                <mxCell id="134" value="&lt;font style=&quot;font-size: 18px&quot;&gt;A+B -&amp;gt;A&lt;/font&gt;" style="whiteSpace=wrap;html=1;rounded=0;labelBackgroundColor=none;" parent="1" vertex="1">
                    <mxGeometry x="2070" y="-562" width="120" height="60" as="geometry"/>
                </mxCell>
                <mxCell id="139" value="" style="edgeStyle=orthogonalEdgeStyle;rounded=0;orthogonalLoop=1;jettySize=auto;html=1;labelBackgroundColor=none;" parent="1" source="136" target="138" edge="1">
                    <mxGeometry relative="1" as="geometry"/>
                </mxCell>
                <mxCell id="136" value="&lt;span style=&quot;font-size: 18px&quot;&gt;MEM -&amp;gt; A&lt;/span&gt;" style="whiteSpace=wrap;html=1;rounded=0;labelBackgroundColor=none;" parent="1" vertex="1">
                    <mxGeometry x="2210" y="-982" width="120" height="60" as="geometry"/>
                </mxCell>
                <mxCell id="141" value="" style="edgeStyle=orthogonalEdgeStyle;rounded=0;orthogonalLoop=1;jettySize=auto;html=1;labelBackgroundColor=none;" parent="1" source="138" target="140" edge="1">
                    <mxGeometry relative="1" as="geometry"/>
                </mxCell>
                <mxCell id="138" value="&lt;font style=&quot;font-size: 18px&quot;&gt;PC -&amp;gt;C&lt;/font&gt;" style="whiteSpace=wrap;html=1;rounded=0;labelBackgroundColor=none;" parent="1" vertex="1">
                    <mxGeometry x="2210" y="-842" width="120" height="60" as="geometry"/>
                </mxCell>
                <mxCell id="143" value="" style="edgeStyle=orthogonalEdgeStyle;rounded=0;orthogonalLoop=1;jettySize=auto;html=1;labelBackgroundColor=none;" parent="1" source="140" target="142" edge="1">
                    <mxGeometry relative="1" as="geometry"/>
                </mxCell>
                <mxCell id="140" value="&lt;span style=&quot;font-size: 18px&quot;&gt;A+B -&amp;gt;AR&lt;/span&gt;" style="whiteSpace=wrap;html=1;rounded=0;labelBackgroundColor=none;" parent="1" vertex="1">
                    <mxGeometry x="2210" y="-702" width="120" height="60" as="geometry"/>
                </mxCell>
                <mxCell id="151" style="edgeStyle=orthogonalEdgeStyle;rounded=0;orthogonalLoop=1;jettySize=auto;html=1;exitX=0.5;exitY=1;exitDx=0;exitDy=0;labelBackgroundColor=none;" parent="1" source="142" edge="1">
                    <mxGeometry relative="1" as="geometry">
                        <mxPoint x="2269.666666666667" y="-442" as="targetPoint"/>
                    </mxGeometry>
                </mxCell>
                <mxCell id="142" value="&lt;span style=&quot;font-size: 18px&quot;&gt;A+B -&amp;gt;A&lt;/span&gt;" style="whiteSpace=wrap;html=1;rounded=0;labelBackgroundColor=none;" parent="1" vertex="1">
                    <mxGeometry x="2210" y="-562" width="120" height="60" as="geometry"/>
                </mxCell>
                <mxCell id="146" value="" style="endArrow=none;html=1;labelBackgroundColor=none;" parent="1" edge="1">
                    <mxGeometry width="50" height="50" relative="1" as="geometry">
                        <mxPoint x="1850" y="-442" as="sourcePoint"/>
                        <mxPoint x="2270" y="-442" as="targetPoint"/>
                    </mxGeometry>
                </mxCell>
                <mxCell id="152" value="" style="endArrow=classic;html=1;labelBackgroundColor=none;" parent="1" edge="1">
                    <mxGeometry width="50" height="50" relative="1" as="geometry">
                        <mxPoint x="2060" y="-442" as="sourcePoint"/>
                        <mxPoint x="2060" y="-392" as="targetPoint"/>
                    </mxGeometry>
                </mxCell>
                <mxCell id="156" style="edgeStyle=orthogonalEdgeStyle;rounded=0;orthogonalLoop=1;jettySize=auto;html=1;exitX=0.5;exitY=1;exitDx=0;exitDy=0;labelBackgroundColor=none;" parent="1" source="155" edge="1">
                    <mxGeometry relative="1" as="geometry">
                        <mxPoint x="2059.666666666667" y="-282" as="targetPoint"/>
                    </mxGeometry>
                </mxCell>
                <mxCell id="155" value="&lt;font style=&quot;font-size: 18px&quot;&gt;P&amp;lt;2&amp;gt;&lt;/font&gt;" style="rhombus;whiteSpace=wrap;html=1;rounded=0;labelBackgroundColor=none;" parent="1" vertex="1">
                    <mxGeometry x="1990" y="-392" width="140" height="80" as="geometry"/>
                </mxCell>
                <mxCell id="157" value="" style="endArrow=none;html=1;labelBackgroundColor=none;" parent="1" edge="1">
                    <mxGeometry width="50" height="50" relative="1" as="geometry">
                        <mxPoint x="1850" y="-282" as="sourcePoint"/>
                        <mxPoint x="2270" y="-282" as="targetPoint"/>
                    </mxGeometry>
                </mxCell>
                <mxCell id="158" style="edgeStyle=orthogonalEdgeStyle;rounded=0;orthogonalLoop=1;jettySize=auto;html=1;exitX=0.5;exitY=1;exitDx=0;exitDy=0;labelBackgroundColor=none;" parent="1" edge="1">
                    <mxGeometry relative="1" as="geometry">
                        <mxPoint x="1979.996666666667" y="-252" as="targetPoint"/>
                        <mxPoint x="1980.33" y="-282" as="sourcePoint"/>
                    </mxGeometry>
                </mxCell>
                <mxCell id="159" style="edgeStyle=orthogonalEdgeStyle;rounded=0;orthogonalLoop=1;jettySize=auto;html=1;exitX=0.5;exitY=1;exitDx=0;exitDy=0;labelBackgroundColor=none;" parent="1" edge="1">
                    <mxGeometry relative="1" as="geometry">
                        <mxPoint x="1849.166666666667" y="-252" as="targetPoint"/>
                        <mxPoint x="1849.5" y="-282" as="sourcePoint"/>
                        <Array as="points">
                            <mxPoint x="1849" y="-267"/>
                            <mxPoint x="1849" y="-267"/>
                        </Array>
                    </mxGeometry>
                </mxCell>
                <mxCell id="161" style="edgeStyle=orthogonalEdgeStyle;rounded=0;orthogonalLoop=1;jettySize=auto;html=1;exitX=0.5;exitY=1;exitDx=0;exitDy=0;labelBackgroundColor=none;" parent="1" edge="1">
                    <mxGeometry relative="1" as="geometry">
                        <mxPoint x="2269.166666666667" y="-252" as="targetPoint"/>
                        <mxPoint x="2269.5" y="-282" as="sourcePoint"/>
                    </mxGeometry>
                </mxCell>
                <mxCell id="351" style="edgeStyle=orthogonalEdgeStyle;rounded=0;orthogonalLoop=1;jettySize=auto;html=1;exitX=0.5;exitY=1;exitDx=0;exitDy=0;entryX=0.5;entryY=0;entryDx=0;entryDy=0;endArrow=classic;endFill=1;labelBackgroundColor=none;" edge="1" parent="1" source="162" target="349">
                    <mxGeometry relative="1" as="geometry"/>
                </mxCell>
                <mxCell id="162" value="&lt;font style=&quot;font-size: 18px&quot;&gt;MEM -&amp;gt; RD&lt;/font&gt;" style="rounded=0;whiteSpace=wrap;html=1;labelBackgroundColor=none;" parent="1" vertex="1">
                    <mxGeometry x="1790" y="-252" width="120" height="60" as="geometry"/>
                </mxCell>
                <mxCell id="355" style="edgeStyle=orthogonalEdgeStyle;rounded=0;orthogonalLoop=1;jettySize=auto;html=1;exitX=0.5;exitY=1;exitDx=0;exitDy=0;entryX=0.5;entryY=0;entryDx=0;entryDy=0;endArrow=classic;endFill=1;labelBackgroundColor=none;" edge="1" parent="1" source="164" target="354">
                    <mxGeometry relative="1" as="geometry"/>
                </mxCell>
                <mxCell id="164" value="&lt;font style=&quot;font-size: 18px&quot;&gt;RD -&amp;gt; MEM&lt;/font&gt;" style="rounded=0;whiteSpace=wrap;html=1;labelBackgroundColor=none;" parent="1" vertex="1">
                    <mxGeometry x="1920" y="-252" width="120" height="60" as="geometry"/>
                </mxCell>
                <mxCell id="359" style="edgeStyle=orthogonalEdgeStyle;rounded=0;orthogonalLoop=1;jettySize=auto;html=1;exitX=0.5;exitY=1;exitDx=0;exitDy=0;entryX=0.5;entryY=0;entryDx=0;entryDy=0;endArrow=classic;endFill=1;labelBackgroundColor=none;" edge="1" parent="1" source="165" target="358">
                    <mxGeometry relative="1" as="geometry"/>
                </mxCell>
                <mxCell id="165" value="&lt;font style=&quot;font-size: 18px&quot;&gt;A -&amp;gt; PC&lt;/font&gt;" style="rounded=0;whiteSpace=wrap;html=1;labelBackgroundColor=none;" parent="1" vertex="1">
                    <mxGeometry x="2070" y="-252" width="120" height="60" as="geometry"/>
                </mxCell>
                <mxCell id="169" value="" style="edgeStyle=orthogonalEdgeStyle;rounded=0;orthogonalLoop=1;jettySize=auto;html=1;labelBackgroundColor=none;" parent="1" source="166" target="168" edge="1">
                    <mxGeometry relative="1" as="geometry"/>
                </mxCell>
                <mxCell id="166" value="&lt;font style=&quot;font-size: 18px&quot;&gt;NOP&lt;/font&gt;" style="rounded=0;whiteSpace=wrap;html=1;labelBackgroundColor=none;" parent="1" vertex="1">
                    <mxGeometry x="2210" y="-252" width="120" height="60" as="geometry"/>
                </mxCell>
                <mxCell id="167" style="edgeStyle=orthogonalEdgeStyle;rounded=0;orthogonalLoop=1;jettySize=auto;html=1;exitX=0.5;exitY=1;exitDx=0;exitDy=0;labelBackgroundColor=none;" parent="1" edge="1">
                    <mxGeometry relative="1" as="geometry">
                        <mxPoint x="2129.9966666666664" y="-252" as="targetPoint"/>
                        <mxPoint x="2130.3299999999995" y="-282" as="sourcePoint"/>
                    </mxGeometry>
                </mxCell>
                <mxCell id="363" style="edgeStyle=orthogonalEdgeStyle;rounded=0;orthogonalLoop=1;jettySize=auto;html=1;exitX=0.5;exitY=1;exitDx=0;exitDy=0;entryX=0.5;entryY=0;entryDx=0;entryDy=0;endArrow=classic;endFill=1;labelBackgroundColor=none;" edge="1" parent="1" source="168" target="172">
                    <mxGeometry relative="1" as="geometry"/>
                </mxCell>
                <mxCell id="365" style="edgeStyle=orthogonalEdgeStyle;rounded=0;orthogonalLoop=1;jettySize=auto;html=1;exitX=0;exitY=0.5;exitDx=0;exitDy=0;entryX=0.5;entryY=0;entryDx=0;entryDy=0;endArrow=classic;endFill=1;labelBackgroundColor=none;" edge="1" parent="1" source="168" target="170">
                    <mxGeometry relative="1" as="geometry"/>
                </mxCell>
                <mxCell id="367" value="&lt;font style=&quot;font-size: 18px&quot;&gt;Y&lt;/font&gt;" style="edgeLabel;html=1;align=center;verticalAlign=middle;resizable=0;points=[];labelBackgroundColor=none;" vertex="1" connectable="0" parent="365">
                    <mxGeometry x="-0.4103" y="-2" relative="1" as="geometry">
                        <mxPoint x="-5" y="14" as="offset"/>
                    </mxGeometry>
                </mxCell>
                <mxCell id="168" value="&lt;font style=&quot;font-size: 18px&quot;&gt;P&amp;lt;3&amp;gt;&lt;/font&gt;" style="rhombus;whiteSpace=wrap;html=1;rounded=0;labelBackgroundColor=none;" parent="1" vertex="1">
                    <mxGeometry x="2210" y="-156" width="120" height="80" as="geometry"/>
                </mxCell>
                <mxCell id="369" style="edgeStyle=orthogonalEdgeStyle;rounded=0;orthogonalLoop=1;jettySize=auto;html=1;exitX=0.5;exitY=1;exitDx=0;exitDy=0;entryX=0.5;entryY=0;entryDx=0;entryDy=0;endArrow=classic;endFill=1;labelBackgroundColor=none;" edge="1" parent="1" source="170" target="362">
                    <mxGeometry relative="1" as="geometry"/>
                </mxCell>
                <mxCell id="170" value="&lt;font style=&quot;font-size: 18px&quot;&gt;A -&amp;gt; PC&lt;/font&gt;" style="whiteSpace=wrap;html=1;rounded=0;labelBackgroundColor=none;" parent="1" vertex="1">
                    <mxGeometry x="2000" y="-8" width="120" height="60" as="geometry"/>
                </mxCell>
                <mxCell id="373" style="edgeStyle=orthogonalEdgeStyle;rounded=0;orthogonalLoop=1;jettySize=auto;html=1;exitX=0.5;exitY=1;exitDx=0;exitDy=0;entryX=0.5;entryY=0;entryDx=0;entryDy=0;endArrow=classic;endFill=1;labelBackgroundColor=none;" edge="1" parent="1" source="172" target="372">
                    <mxGeometry relative="1" as="geometry"/>
                </mxCell>
                <mxCell id="172" value="&lt;font style=&quot;font-size: 18px&quot;&gt;NOP&lt;/font&gt;" style="whiteSpace=wrap;html=1;rounded=0;labelBackgroundColor=none;" parent="1" vertex="1">
                    <mxGeometry x="2210" y="-8" width="120" height="60" as="geometry"/>
                </mxCell>
                <mxCell id="197" value="35" style="text;html=1;strokeColor=none;fillColor=none;align=center;verticalAlign=middle;whiteSpace=wrap;rounded=0;labelBackgroundColor=none;" parent="1" vertex="1">
                    <mxGeometry x="790" y="-969.5" width="40" height="20" as="geometry"/>
                </mxCell>
                <mxCell id="198" value="00" style="text;html=1;strokeColor=none;fillColor=none;align=center;verticalAlign=middle;whiteSpace=wrap;rounded=0;labelBackgroundColor=none;" parent="1" vertex="1">
                    <mxGeometry x="1230" y="-1625" width="40" height="20" as="geometry"/>
                </mxCell>
                <mxCell id="203" value="01" style="text;html=1;strokeColor=none;fillColor=none;align=center;verticalAlign=middle;whiteSpace=wrap;rounded=0;labelBackgroundColor=none;" parent="1" vertex="1">
                    <mxGeometry x="1230" y="-1495" width="40" height="20" as="geometry"/>
                </mxCell>
                <mxCell id="205" value="03" style="text;html=1;strokeColor=none;fillColor=none;align=center;verticalAlign=middle;whiteSpace=wrap;rounded=0;labelBackgroundColor=none;" parent="1" vertex="1">
                    <mxGeometry x="1230" y="-1402" width="40" height="20" as="geometry"/>
                </mxCell>
                <mxCell id="206" value="30" style="text;html=1;strokeColor=none;fillColor=none;align=center;verticalAlign=middle;whiteSpace=wrap;rounded=0;labelBackgroundColor=none;" parent="1" vertex="1">
                    <mxGeometry x="1230" y="-1322" width="40" height="20" as="geometry"/>
                </mxCell>
                <mxCell id="207" value="30" style="text;html=1;strokeColor=none;fillColor=none;align=center;verticalAlign=middle;whiteSpace=wrap;rounded=0;labelBackgroundColor=none;" parent="1" vertex="1">
                    <mxGeometry x="160" y="-1132" width="40" height="20" as="geometry"/>
                </mxCell>
                <mxCell id="208" value="04" style="text;html=1;strokeColor=none;fillColor=none;align=center;verticalAlign=middle;whiteSpace=wrap;rounded=0;labelBackgroundColor=none;" parent="1" vertex="1">
                    <mxGeometry x="160" y="-992" width="40" height="20" as="geometry"/>
                </mxCell>
                <mxCell id="209" value="05" style="text;html=1;strokeColor=none;fillColor=none;align=center;verticalAlign=middle;whiteSpace=wrap;rounded=0;labelBackgroundColor=none;" parent="1" vertex="1">
                    <mxGeometry x="165" y="-852" width="40" height="20" as="geometry"/>
                </mxCell>
                <mxCell id="210" value="31&lt;span style=&quot;color: rgba(0 , 0 , 0 , 0) ; font-family: monospace ; font-size: 0px&quot;&gt;%3CmxGraphModel%3E%3Croot%3E%3CmxCell%20id%3D%220%22%2F%3E%3CmxCell%20id%3D%221%22%20parent%3D%220%22%2F%3E%3CmxCell%20id%3D%222%22%20value%3D%2230%22%20style%3D%22text%3Bhtml%3D1%3BstrokeColor%3Dnone%3BfillColor%3Dnone%3Balign%3Dcenter%3BverticalAlign%3Dmiddle%3BwhiteSpace%3Dwrap%3Brounded%3D0%3B%22%20vertex%3D%221%22%20parent%3D%221%22%3E%3CmxGeometry%20x%3D%22160%22%20y%3D%22-1210%22%20width%3D%2240%22%20height%3D%2220%22%20as%3D%22geometry%22%2F%3E%3C%2FmxCell%3E%3C%2Froot%3E%3C%2FmxGraphModel%3E&lt;/span&gt;" style="text;html=1;strokeColor=none;fillColor=none;align=center;verticalAlign=middle;whiteSpace=wrap;rounded=0;labelBackgroundColor=none;" parent="1" vertex="1">
                    <mxGeometry x="305" y="-1132" width="40" height="20" as="geometry"/>
                </mxCell>
                <mxCell id="211" value="32&lt;span style=&quot;color: rgba(0 , 0 , 0 , 0) ; font-family: monospace ; font-size: 0px&quot;&gt;%3CmxGraphModel%3E%3Croot%3E%3CmxCell%20id%3D%220%22%2F%3E%3CmxCell%20id%3D%221%22%20parent%3D%220%22%2F%3E%3CmxCell%20id%3D%222%22%20value%3D%2230%22%20style%3D%22text%3Bhtml%3D1%3BstrokeColor%3Dnone%3BfillColor%3Dnone%3Balign%3Dcenter%3BverticalAlign%3Dmiddle%3BwhiteSpace%3Dwrap%3Brounded%3D0%3B%22%20vertex%3D%221%22%20parent%3D%221%22%3E%3CmxGeometry%20x%3D%22160%22%20y%3D%22-1210%22%20width%3D%2240%22%20height%3D%2220%22%20as%3D%22geometry%22%2F%3E%3C%2FmxCell%3E%3C%2Froot%3E%3C%2FmxGraphModel%3E&lt;/span&gt;" style="text;html=1;strokeColor=none;fillColor=none;align=center;verticalAlign=middle;whiteSpace=wrap;rounded=0;labelBackgroundColor=none;" parent="1" vertex="1">
                    <mxGeometry x="430" y="-1132" width="40" height="20" as="geometry"/>
                </mxCell>
                <mxCell id="212" value="33" style="text;html=1;strokeColor=none;fillColor=none;align=center;verticalAlign=middle;whiteSpace=wrap;rounded=0;labelBackgroundColor=none;" parent="1" vertex="1">
                    <mxGeometry x="560" y="-1132" width="40" height="20" as="geometry"/>
                </mxCell>
                <mxCell id="213" value="34" style="text;html=1;strokeColor=none;fillColor=none;align=center;verticalAlign=middle;whiteSpace=wrap;rounded=0;labelBackgroundColor=none;" parent="1" vertex="1">
                    <mxGeometry x="690" y="-1132" width="40" height="20" as="geometry"/>
                </mxCell>
                <mxCell id="214" value="35" style="text;html=1;strokeColor=none;fillColor=none;align=center;verticalAlign=middle;whiteSpace=wrap;rounded=0;labelBackgroundColor=none;" parent="1" vertex="1">
                    <mxGeometry x="830" y="-1132" width="40" height="20" as="geometry"/>
                </mxCell>
                <mxCell id="215" value="36" style="text;html=1;strokeColor=none;fillColor=none;align=center;verticalAlign=middle;whiteSpace=wrap;rounded=0;labelBackgroundColor=none;" parent="1" vertex="1">
                    <mxGeometry x="985" y="-1132" width="40" height="20" as="geometry"/>
                </mxCell>
                <mxCell id="216" value="37" style="text;html=1;strokeColor=none;fillColor=none;align=center;verticalAlign=middle;whiteSpace=wrap;rounded=0;labelBackgroundColor=none;" parent="1" vertex="1">
                    <mxGeometry x="1121" y="-1132" width="40" height="20" as="geometry"/>
                </mxCell>
                <mxCell id="217" value="06" style="text;html=1;strokeColor=none;fillColor=none;align=center;verticalAlign=middle;whiteSpace=wrap;rounded=0;labelBackgroundColor=none;" parent="1" vertex="1">
                    <mxGeometry x="295" y="-992" width="40" height="20" as="geometry"/>
                </mxCell>
                <mxCell id="218" value="07&lt;span style=&quot;color: rgba(0 , 0 , 0 , 0) ; font-family: monospace ; font-size: 0px&quot;&gt;%3CmxGraphModel%3E%3Croot%3E%3CmxCell%20id%3D%220%22%2F%3E%3CmxCell%20id%3D%221%22%20parent%3D%220%22%2F%3E%3CmxCell%20id%3D%222%22%20value%3D%2206%22%20style%3D%22text%3Bhtml%3D1%3BstrokeColor%3Dnone%3BfillColor%3Dnone%3Balign%3Dcenter%3BverticalAlign%3Dmiddle%3BwhiteSpace%3Dwrap%3Brounded%3D0%3B%22%20vertex%3D%221%22%20parent%3D%221%22%3E%3CmxGeometry%20x%3D%22295%22%20y%3D%22-1070%22%20width%3D%2240%22%20height%3D%2220%22%20as%3D%22geometry%22%2F%3E%3C%2FmxCell%3E%3C%2Froot%3E%3C%2FmxGraphModel%3E&lt;/span&gt;" style="text;html=1;strokeColor=none;fillColor=none;align=center;verticalAlign=middle;whiteSpace=wrap;rounded=0;labelBackgroundColor=none;" parent="1" vertex="1">
                    <mxGeometry x="295" y="-852" width="40" height="20" as="geometry"/>
                </mxCell>
                <mxCell id="219" value="08" style="text;html=1;strokeColor=none;fillColor=none;align=center;verticalAlign=middle;whiteSpace=wrap;rounded=0;labelBackgroundColor=none;" parent="1" vertex="1">
                    <mxGeometry x="425" y="-992" width="40" height="20" as="geometry"/>
                </mxCell>
                <mxCell id="220" value="09" style="text;html=1;strokeColor=none;fillColor=none;align=center;verticalAlign=middle;whiteSpace=wrap;rounded=0;labelBackgroundColor=none;" parent="1" vertex="1">
                    <mxGeometry x="425" y="-852" width="40" height="20" as="geometry"/>
                </mxCell>
                <mxCell id="221" value="0A&lt;span style=&quot;color: rgba(0 , 0 , 0 , 0) ; font-family: monospace ; font-size: 0px&quot;&gt;%3CmxGraphModel%3E%3Croot%3E%3CmxCell%20id%3D%220%22%2F%3E%3CmxCell%20id%3D%221%22%20parent%3D%220%22%2F%3E%3CmxCell%20id%3D%222%22%20value%3D%2206%22%20style%3D%22text%3Bhtml%3D1%3BstrokeColor%3Dnone%3BfillColor%3Dnone%3Balign%3Dcenter%3BverticalAlign%3Dmiddle%3BwhiteSpace%3Dwrap%3Brounded%3D0%3B%22%20vertex%3D%221%22%20parent%3D%221%22%3E%3CmxGeometry%20x%3D%22295%22%20y%3D%22-1070%22%20width%3D%2240%22%20height%3D%2220%22%20as%3D%22geometry%22%2F%3E%3C%2FmxCell%3E%3C%2Froot%3E%3C%2FmxGraphModel%3E&lt;/span&gt;" style="text;html=1;strokeColor=none;fillColor=none;align=center;verticalAlign=middle;whiteSpace=wrap;rounded=0;labelBackgroundColor=none;" parent="1" vertex="1">
                    <mxGeometry x="560" y="-992" width="40" height="20" as="geometry"/>
                </mxCell>
                <mxCell id="222" value="10" style="text;html=1;strokeColor=none;fillColor=none;align=center;verticalAlign=middle;whiteSpace=wrap;rounded=0;labelBackgroundColor=none;" parent="1" vertex="1">
                    <mxGeometry x="565" y="-852" width="40" height="20" as="geometry"/>
                </mxCell>
                <mxCell id="223" value="11" style="text;html=1;strokeColor=none;fillColor=none;align=center;verticalAlign=middle;whiteSpace=wrap;rounded=0;labelBackgroundColor=none;" parent="1" vertex="1">
                    <mxGeometry x="985" y="-992" width="40" height="20" as="geometry"/>
                </mxCell>
                <mxCell id="224" value="12" style="text;html=1;strokeColor=none;fillColor=none;align=center;verticalAlign=middle;whiteSpace=wrap;rounded=0;labelBackgroundColor=none;" parent="1" vertex="1">
                    <mxGeometry x="1125" y="-992" width="40" height="20" as="geometry"/>
                </mxCell>
                <mxCell id="225" value="13" style="text;html=1;strokeColor=none;fillColor=none;align=center;verticalAlign=middle;whiteSpace=wrap;rounded=0;labelBackgroundColor=none;" parent="1" vertex="1">
                    <mxGeometry x="1335" y="-1002" width="40" height="20" as="geometry"/>
                </mxCell>
                <mxCell id="226" value="14" style="text;html=1;strokeColor=none;fillColor=none;align=center;verticalAlign=middle;whiteSpace=wrap;rounded=0;labelBackgroundColor=none;" parent="1" vertex="1">
                    <mxGeometry x="1340" y="-862" width="40" height="20" as="geometry"/>
                </mxCell>
                <mxCell id="227" value="15" style="text;html=1;strokeColor=none;fillColor=none;align=center;verticalAlign=middle;whiteSpace=wrap;rounded=0;labelBackgroundColor=none;" parent="1" vertex="1">
                    <mxGeometry x="1460" y="-1002" width="40" height="20" as="geometry"/>
                </mxCell>
                <mxCell id="228" value="16" style="text;html=1;strokeColor=none;fillColor=none;align=center;verticalAlign=middle;whiteSpace=wrap;rounded=0;labelBackgroundColor=none;" parent="1" vertex="1">
                    <mxGeometry x="1460" y="-862" width="40" height="20" as="geometry"/>
                </mxCell>
                <mxCell id="229" value="17" style="text;html=1;strokeColor=none;fillColor=none;align=center;verticalAlign=middle;whiteSpace=wrap;rounded=0;labelBackgroundColor=none;" parent="1" vertex="1">
                    <mxGeometry x="1595" y="-1002" width="40" height="20" as="geometry"/>
                </mxCell>
                <mxCell id="230" value="18" style="text;html=1;strokeColor=none;fillColor=none;align=center;verticalAlign=middle;whiteSpace=wrap;rounded=0;labelBackgroundColor=none;" parent="1" vertex="1">
                    <mxGeometry x="1590" y="-858" width="40" height="12" as="geometry"/>
                </mxCell>
                <mxCell id="231" value="38&lt;span style=&quot;color: rgba(0 , 0 , 0 , 0) ; font-family: monospace ; font-size: 0px&quot;&gt;%3CmxGraphModel%3E%3Croot%3E%3CmxCell%20id%3D%220%22%2F%3E%3CmxCell%20id%3D%221%22%20parent%3D%220%22%2F%3E%3CmxCell%20id%3D%222%22%20value%3D%2237%22%20style%3D%22text%3Bhtml%3D1%3BstrokeColor%3Dnone%3BfillColor%3Dnone%3Balign%3Dcenter%3BverticalAlign%3Dmiddle%3BwhiteSpace%3Dwrap%3Brounded%3D0%3B%22%20vertex%3D%221%22%20parent%3D%221%22%3E%3CmxGeometry%20x%3D%221121%22%20y%3D%22-1210%22%20width%3D%2240%22%20height%3D%2220%22%20as%3D%22geometry%22%2F%3E%3C%2FmxCell%3E%3C%2Froot%3E%3C%2FmxGraphModel%3E&lt;/span&gt;" style="text;html=1;strokeColor=none;fillColor=none;align=center;verticalAlign=middle;whiteSpace=wrap;rounded=0;labelBackgroundColor=none;" parent="1" vertex="1">
                    <mxGeometry x="1335" y="-1142" width="40" height="20" as="geometry"/>
                </mxCell>
                <mxCell id="232" value="39" style="text;html=1;strokeColor=none;fillColor=none;align=center;verticalAlign=middle;whiteSpace=wrap;rounded=0;labelBackgroundColor=none;" parent="1" vertex="1">
                    <mxGeometry x="1450" y="-1142" width="40" height="20" as="geometry"/>
                </mxCell>
                <mxCell id="233" value="3A" style="text;html=1;strokeColor=none;fillColor=none;align=center;verticalAlign=middle;whiteSpace=wrap;rounded=0;labelBackgroundColor=none;" parent="1" vertex="1">
                    <mxGeometry x="1590" y="-1142" width="40" height="20" as="geometry"/>
                </mxCell>
                <mxCell id="234" value="3B" style="text;html=1;strokeColor=none;fillColor=none;align=center;verticalAlign=middle;whiteSpace=wrap;rounded=0;labelBackgroundColor=none;" parent="1" vertex="1">
                    <mxGeometry x="1730" y="-1142" width="40" height="20" as="geometry"/>
                </mxCell>
                <mxCell id="235" value="3C" style="text;html=1;strokeColor=none;fillColor=none;align=center;verticalAlign=middle;whiteSpace=wrap;rounded=0;labelBackgroundColor=none;" parent="1" vertex="1">
                    <mxGeometry x="1870" y="-1142" width="40" height="20" as="geometry"/>
                </mxCell>
                <mxCell id="236" value="3D" style="text;html=1;strokeColor=none;fillColor=none;align=center;verticalAlign=middle;whiteSpace=wrap;rounded=0;labelBackgroundColor=none;" parent="1" vertex="1">
                    <mxGeometry x="2010" y="-1142" width="40" height="20" as="geometry"/>
                </mxCell>
                <mxCell id="237" value="3E" style="text;html=1;strokeColor=none;fillColor=none;align=center;verticalAlign=middle;whiteSpace=wrap;rounded=0;labelBackgroundColor=none;" parent="1" vertex="1">
                    <mxGeometry x="2150" y="-1142" width="40" height="20" as="geometry"/>
                </mxCell>
                <mxCell id="238" value="3F" style="text;html=1;strokeColor=none;fillColor=none;align=center;verticalAlign=middle;whiteSpace=wrap;rounded=0;labelBackgroundColor=none;" parent="1" vertex="1">
                    <mxGeometry x="2290" y="-1142" width="40" height="20" as="geometry"/>
                </mxCell>
                <mxCell id="239" value="1C" style="text;html=1;strokeColor=none;fillColor=none;align=center;verticalAlign=middle;whiteSpace=wrap;rounded=0;labelBackgroundColor=none;" parent="1" vertex="1">
                    <mxGeometry x="1870" y="-1002" width="40" height="20" as="geometry"/>
                </mxCell>
                <mxCell id="240" value="1D" style="text;html=1;strokeColor=none;fillColor=none;align=center;verticalAlign=middle;whiteSpace=wrap;rounded=0;labelBackgroundColor=none;" parent="1" vertex="1">
                    <mxGeometry x="1870" y="-862" width="40" height="20" as="geometry"/>
                </mxCell>
                <mxCell id="241" value="1E" style="text;html=1;strokeColor=none;fillColor=none;align=center;verticalAlign=middle;whiteSpace=wrap;rounded=0;labelBackgroundColor=none;" parent="1" vertex="1">
                    <mxGeometry x="2010" y="-1002" width="40" height="20" as="geometry"/>
                </mxCell>
                <mxCell id="242" value="1F" style="text;html=1;strokeColor=none;fillColor=none;align=center;verticalAlign=middle;whiteSpace=wrap;rounded=0;labelBackgroundColor=none;" parent="1" vertex="1">
                    <mxGeometry x="2010" y="-862" width="40" height="20" as="geometry"/>
                </mxCell>
                <mxCell id="243" value="20" style="text;html=1;strokeColor=none;fillColor=none;align=center;verticalAlign=middle;whiteSpace=wrap;rounded=0;labelBackgroundColor=none;" parent="1" vertex="1">
                    <mxGeometry x="2010" y="-722" width="40" height="20" as="geometry"/>
                </mxCell>
                <mxCell id="244" value="28&lt;span style=&quot;color: rgba(0 , 0 , 0 , 0) ; font-family: monospace ; font-size: 0px&quot;&gt;%3CmxGraphModel%3E%3Croot%3E%3CmxCell%20id%3D%220%22%2F%3E%3CmxCell%20id%3D%221%22%20parent%3D%220%22%2F%3E%3CmxCell%20id%3D%222%22%20value%3D%223A%22%20style%3D%22text%3Bhtml%3D1%3BstrokeColor%3Dnone%3BfillColor%3Dnone%3Balign%3Dcenter%3BverticalAlign%3Dmiddle%3BwhiteSpace%3Dwrap%3Brounded%3D0%3B%22%20vertex%3D%221%22%20parent%3D%221%22%3E%3CmxGeometry%20x%3D%221870%22%20y%3D%22-1220%22%20width%3D%2240%22%20height%3D%2220%22%20as%3D%22geometry%22%2F%3E%3C%2FmxCell%3E%3C%2Froot%3E%3C%2FmxGraphModel%3E&lt;/span&gt;" style="text;html=1;strokeColor=none;fillColor=none;align=center;verticalAlign=middle;whiteSpace=wrap;rounded=0;labelBackgroundColor=none;" parent="1" vertex="1">
                    <mxGeometry x="2150" y="-1002" width="40" height="20" as="geometry"/>
                </mxCell>
                <mxCell id="245" value="29" style="text;html=1;strokeColor=none;fillColor=none;align=center;verticalAlign=middle;whiteSpace=wrap;rounded=0;labelBackgroundColor=none;" parent="1" vertex="1">
                    <mxGeometry x="2150" y="-862" width="40" height="20" as="geometry"/>
                </mxCell>
                <mxCell id="246" value="2A" style="text;html=1;strokeColor=none;fillColor=none;align=center;verticalAlign=middle;whiteSpace=wrap;rounded=0;labelBackgroundColor=none;" parent="1" vertex="1">
                    <mxGeometry x="2150" y="-722" width="40" height="20" as="geometry"/>
                </mxCell>
                <mxCell id="247" value="2B" style="text;html=1;strokeColor=none;fillColor=none;align=center;verticalAlign=middle;whiteSpace=wrap;rounded=0;labelBackgroundColor=none;" parent="1" vertex="1">
                    <mxGeometry x="2150" y="-582" width="40" height="20" as="geometry"/>
                </mxCell>
                <mxCell id="248" value="2C" style="text;html=1;strokeColor=none;fillColor=none;align=center;verticalAlign=middle;whiteSpace=wrap;rounded=0;labelBackgroundColor=none;" parent="1" vertex="1">
                    <mxGeometry x="2290" y="-1002" width="40" height="20" as="geometry"/>
                </mxCell>
                <mxCell id="249" value="2D" style="text;html=1;strokeColor=none;fillColor=none;align=center;verticalAlign=middle;whiteSpace=wrap;rounded=0;labelBackgroundColor=none;" parent="1" vertex="1">
                    <mxGeometry x="2290" y="-862" width="40" height="20" as="geometry"/>
                </mxCell>
                <mxCell id="250" value="2E&lt;span style=&quot;color: rgba(0 , 0 , 0 , 0) ; font-family: monospace ; font-size: 0px&quot;&gt;%3CmxGraphModel%3E%3Croot%3E%3CmxCell%20id%3D%220%22%2F%3E%3CmxCell%20id%3D%221%22%20parent%3D%220%22%2F%3E%3CmxCell%20id%3D%222%22%20value%3D%222D%22%20style%3D%22text%3Bhtml%3D1%3BstrokeColor%3Dnone%3BfillColor%3Dnone%3Balign%3Dcenter%3BverticalAlign%3Dmiddle%3BwhiteSpace%3Dwrap%3Brounded%3D0%3B%22%20vertex%3D%221%22%20parent%3D%221%22%3E%3CmxGeometry%20x%3D%222290%22%20y%3D%22-940%22%20width%3D%2240%22%20height%3D%2220%22%20as%3D%22geometry%22%2F%3E%3C%2FmxCell%3E%3C%2Froot%3E%3C%2FmxGraphModel%3E&lt;/span&gt;" style="text;html=1;strokeColor=none;fillColor=none;align=center;verticalAlign=middle;whiteSpace=wrap;rounded=0;labelBackgroundColor=none;" parent="1" vertex="1">
                    <mxGeometry x="2290" y="-722" width="40" height="20" as="geometry"/>
                </mxCell>
                <mxCell id="251" value="2F" style="text;html=1;strokeColor=none;fillColor=none;align=center;verticalAlign=middle;whiteSpace=wrap;rounded=0;labelBackgroundColor=none;" parent="1" vertex="1">
                    <mxGeometry x="2290" y="-582" width="40" height="20" as="geometry"/>
                </mxCell>
                <mxCell id="252" value="0C" style="text;html=1;strokeColor=none;fillColor=none;align=center;verticalAlign=middle;whiteSpace=wrap;rounded=0;labelBackgroundColor=none;" parent="1" vertex="1">
                    <mxGeometry x="1870" y="-772" width="40" height="20" as="geometry"/>
                </mxCell>
                <mxCell id="253" value="0C" style="text;html=1;strokeColor=none;fillColor=none;align=center;verticalAlign=middle;whiteSpace=wrap;rounded=0;labelBackgroundColor=none;" parent="1" vertex="1">
                    <mxGeometry x="2010" y="-632" width="40" height="20" as="geometry"/>
                </mxCell>
                <mxCell id="254" value="0C" style="text;html=1;strokeColor=none;fillColor=none;align=center;verticalAlign=middle;whiteSpace=wrap;rounded=0;labelBackgroundColor=none;" parent="1" vertex="1">
                    <mxGeometry x="2155" y="-492" width="40" height="20" as="geometry"/>
                </mxCell>
                <mxCell id="255" value="0C" style="text;html=1;strokeColor=none;fillColor=none;align=center;verticalAlign=middle;whiteSpace=wrap;rounded=0;labelBackgroundColor=none;" parent="1" vertex="1">
                    <mxGeometry x="2290" y="-492" width="40" height="20" as="geometry"/>
                </mxCell>
                <mxCell id="256" value="0C" style="text;html=1;strokeColor=none;fillColor=none;align=center;verticalAlign=middle;whiteSpace=wrap;rounded=0;labelBackgroundColor=none;" parent="1" vertex="1">
                    <mxGeometry x="1870" y="-272" width="40" height="20" as="geometry"/>
                </mxCell>
                <mxCell id="257" value="0D" style="text;html=1;strokeColor=none;fillColor=none;align=center;verticalAlign=middle;whiteSpace=wrap;rounded=0;labelBackgroundColor=none;" parent="1" vertex="1">
                    <mxGeometry x="2000" y="-272" width="40" height="20" as="geometry"/>
                </mxCell>
                <mxCell id="258" value="0E" style="text;html=1;strokeColor=none;fillColor=none;align=center;verticalAlign=middle;whiteSpace=wrap;rounded=0;labelBackgroundColor=none;" parent="1" vertex="1">
                    <mxGeometry x="2150" y="-272" width="40" height="20" as="geometry"/>
                </mxCell>
                <mxCell id="259" value="0F" style="text;html=1;strokeColor=none;fillColor=none;align=center;verticalAlign=middle;whiteSpace=wrap;rounded=0;labelBackgroundColor=none;" parent="1" vertex="1">
                    <mxGeometry x="2290" y="-272" width="40" height="20" as="geometry"/>
                </mxCell>
                <mxCell id="260" value="0B" style="text;html=1;strokeColor=none;fillColor=none;align=center;verticalAlign=middle;whiteSpace=wrap;rounded=0;labelBackgroundColor=none;" parent="1" vertex="1">
                    <mxGeometry x="2290" y="-192" width="40" height="20" as="geometry"/>
                </mxCell>
                <mxCell id="261" value="1B" style="text;html=1;strokeColor=none;fillColor=none;align=center;verticalAlign=middle;whiteSpace=wrap;rounded=0;labelBackgroundColor=none;" parent="1" vertex="1">
                    <mxGeometry x="2080" y="-28" width="40" height="20" as="geometry"/>
                </mxCell>
                <mxCell id="262" value="0B" style="text;html=1;strokeColor=none;fillColor=none;align=center;verticalAlign=middle;whiteSpace=wrap;rounded=0;labelBackgroundColor=none;" parent="1" vertex="1">
                    <mxGeometry x="2291" y="-28" width="40" height="20" as="geometry"/>
                </mxCell>
                <mxCell id="276" style="edgeStyle=orthogonalEdgeStyle;rounded=0;orthogonalLoop=1;jettySize=auto;html=1;exitX=0.5;exitY=1;exitDx=0;exitDy=0;entryX=0.5;entryY=0;entryDx=0;entryDy=0;labelBackgroundColor=none;" edge="1" parent="1" source="272" target="275">
                    <mxGeometry relative="1" as="geometry"/>
                </mxCell>
                <mxCell id="272" value="&lt;span style=&quot;font-size: 18px&quot;&gt;RS -&amp;gt; B&lt;/span&gt;" style="rounded=0;whiteSpace=wrap;html=1;labelBackgroundColor=none;" vertex="1" parent="1">
                    <mxGeometry x="1650" y="-982" width="120" height="60" as="geometry"/>
                </mxCell>
                <mxCell id="274" value="19" style="text;html=1;strokeColor=none;fillColor=none;align=center;verticalAlign=middle;whiteSpace=wrap;rounded=0;labelBackgroundColor=none;" vertex="1" parent="1">
                    <mxGeometry x="1729" y="-1002" width="40" height="20" as="geometry"/>
                </mxCell>
                <mxCell id="346" style="edgeStyle=orthogonalEdgeStyle;rounded=0;orthogonalLoop=1;jettySize=auto;html=1;exitX=0.5;exitY=1;exitDx=0;exitDy=0;entryX=0.5;entryY=0;entryDx=0;entryDy=0;endArrow=classic;endFill=1;labelBackgroundColor=none;" edge="1" parent="1" source="275" target="345">
                    <mxGeometry relative="1" as="geometry"/>
                </mxCell>
                <mxCell id="275" value="&lt;font style=&quot;font-size: 18px&quot;&gt;A SHR -&amp;gt; RD&lt;/font&gt;" style="rounded=0;whiteSpace=wrap;html=1;labelBackgroundColor=none;" vertex="1" parent="1">
                    <mxGeometry x="1650" y="-842" width="120" height="60" as="geometry"/>
                </mxCell>
                <mxCell id="277" value="1A" style="text;html=1;strokeColor=none;fillColor=none;align=center;verticalAlign=middle;whiteSpace=wrap;rounded=0;labelBackgroundColor=none;" vertex="1" parent="1">
                    <mxGeometry x="1729" y="-858" width="40" height="12" as="geometry"/>
                </mxCell>
                <mxCell id="291" value="" style="endArrow=none;html=1;endFill=0;rounded=0;labelBackgroundColor=none;" edge="1" parent="1">
                    <mxGeometry width="50" height="50" relative="1" as="geometry">
                        <mxPoint x="1184" y="-1495" as="sourcePoint"/>
                        <mxPoint x="1236" y="-1521" as="targetPoint"/>
                        <Array as="points">
                            <mxPoint x="1197" y="-1508"/>
                            <mxPoint x="1223" y="-1508"/>
                        </Array>
                    </mxGeometry>
                </mxCell>
                <mxCell id="294" style="edgeStyle=orthogonalEdgeStyle;rounded=0;orthogonalLoop=1;jettySize=auto;html=1;exitX=0.5;exitY=1;exitDx=0;exitDy=0;endArrow=classic;endFill=1;labelBackgroundColor=none;" edge="1" parent="1">
                    <mxGeometry relative="1" as="geometry">
                        <mxPoint x="1209.83" y="-1475" as="targetPoint"/>
                        <mxPoint x="1209.83" y="-1512" as="sourcePoint"/>
                    </mxGeometry>
                </mxCell>
                <mxCell id="301" value="" style="group;labelBackgroundColor=none;" vertex="1" connectable="0" parent="1">
                    <mxGeometry x="127" y="-728" width="26" height="26" as="geometry"/>
                </mxCell>
                <mxCell id="296" value="" style="endArrow=none;html=1;endFill=0;rounded=0;labelBackgroundColor=none;" edge="1" parent="301">
                    <mxGeometry y="0.5" width="50" height="50" as="geometry">
                        <mxPoint x="-13" y="13.5" as="sourcePoint"/>
                        <mxPoint x="39" y="-12.5" as="targetPoint"/>
                        <Array as="points">
                            <mxPoint y="0.5"/>
                            <mxPoint x="26" y="0.5"/>
                        </Array>
                    </mxGeometry>
                </mxCell>
                <mxCell id="297" value="&lt;span style=&quot;font-size: 14px ; text-align: center&quot;&gt;01&lt;/span&gt;" style="text;whiteSpace=wrap;html=1;labelBackgroundColor=none;" vertex="1" parent="301">
                    <mxGeometry x="5" width="16" height="26" as="geometry"/>
                </mxCell>
                <mxCell id="303" value="" style="group;labelBackgroundColor=none;" vertex="1" connectable="0" parent="1">
                    <mxGeometry x="262" y="-728" width="26" height="26" as="geometry"/>
                </mxCell>
                <mxCell id="304" value="" style="endArrow=none;html=1;endFill=0;rounded=0;labelBackgroundColor=none;" edge="1" parent="303">
                    <mxGeometry y="0.5" width="50" height="50" as="geometry">
                        <mxPoint x="-13" y="13.5" as="sourcePoint"/>
                        <mxPoint x="39" y="-12.5" as="targetPoint"/>
                        <Array as="points">
                            <mxPoint y="0.5"/>
                            <mxPoint x="26" y="0.5"/>
                        </Array>
                    </mxGeometry>
                </mxCell>
                <mxCell id="305" value="&lt;span style=&quot;font-size: 14px ; text-align: center&quot;&gt;01&lt;/span&gt;" style="text;whiteSpace=wrap;html=1;labelBackgroundColor=none;" vertex="1" parent="303">
                    <mxGeometry x="5" width="16" height="26" as="geometry"/>
                </mxCell>
                <mxCell id="307" value="" style="group;labelBackgroundColor=none;" vertex="1" connectable="0" parent="1">
                    <mxGeometry x="392" y="-728" width="26" height="26" as="geometry"/>
                </mxCell>
                <mxCell id="308" value="" style="endArrow=none;html=1;endFill=0;rounded=0;labelBackgroundColor=none;" edge="1" parent="307">
                    <mxGeometry y="0.5" width="50" height="50" as="geometry">
                        <mxPoint x="-13" y="13.5" as="sourcePoint"/>
                        <mxPoint x="39" y="-12.5" as="targetPoint"/>
                        <Array as="points">
                            <mxPoint y="0.5"/>
                            <mxPoint x="26" y="0.5"/>
                        </Array>
                    </mxGeometry>
                </mxCell>
                <mxCell id="309" value="&lt;span style=&quot;font-size: 14px ; text-align: center&quot;&gt;01&lt;/span&gt;" style="text;whiteSpace=wrap;html=1;labelBackgroundColor=none;" vertex="1" parent="307">
                    <mxGeometry x="5" width="16" height="26" as="geometry"/>
                </mxCell>
                <mxCell id="311" value="" style="group;labelBackgroundColor=none;" vertex="1" connectable="0" parent="1">
                    <mxGeometry x="527" y="-728" width="26" height="26" as="geometry"/>
                </mxCell>
                <mxCell id="312" value="" style="endArrow=none;html=1;endFill=0;rounded=0;labelBackgroundColor=none;" edge="1" parent="311">
                    <mxGeometry y="0.5" width="50" height="50" as="geometry">
                        <mxPoint x="-13" y="13.5" as="sourcePoint"/>
                        <mxPoint x="39" y="-12.5" as="targetPoint"/>
                        <Array as="points">
                            <mxPoint y="0.5"/>
                            <mxPoint x="26" y="0.5"/>
                        </Array>
                    </mxGeometry>
                </mxCell>
                <mxCell id="313" value="&lt;span style=&quot;text-align: center ; text-indent: 0px ; display: inline ; float: none&quot;&gt;&lt;font style=&quot;font-size: 14px&quot;&gt;01&lt;/font&gt;&lt;/span&gt;" style="text;whiteSpace=wrap;html=1;labelBackgroundColor=none;" vertex="1" parent="311">
                    <mxGeometry x="5" width="16" height="26" as="geometry"/>
                </mxCell>
                <mxCell id="317" value="" style="group;labelBackgroundColor=none;" vertex="1" connectable="0" parent="1">
                    <mxGeometry x="657" y="-975.5" width="26" height="26" as="geometry"/>
                </mxCell>
                <mxCell id="318" value="" style="endArrow=none;html=1;endFill=0;rounded=0;labelBackgroundColor=none;" edge="1" parent="317">
                    <mxGeometry y="0.5" width="50" height="50" as="geometry">
                        <mxPoint x="-13" y="13.5" as="sourcePoint"/>
                        <mxPoint x="39" y="-12.5" as="targetPoint"/>
                        <Array as="points">
                            <mxPoint y="0.5"/>
                            <mxPoint x="26" y="0.5"/>
                        </Array>
                    </mxGeometry>
                </mxCell>
                <mxCell id="319" value="&lt;span style=&quot;font-size: 14px ; text-align: center&quot;&gt;01&lt;/span&gt;" style="text;whiteSpace=wrap;html=1;labelBackgroundColor=none;" vertex="1" parent="317">
                    <mxGeometry x="5" width="16" height="26" as="geometry"/>
                </mxCell>
                <mxCell id="321" value="" style="group;labelBackgroundColor=none;" vertex="1" connectable="0" parent="1">
                    <mxGeometry x="952" y="-852.5" width="26" height="26" as="geometry"/>
                </mxCell>
                <mxCell id="322" value="" style="endArrow=none;html=1;endFill=0;rounded=0;labelBackgroundColor=none;" edge="1" parent="321">
                    <mxGeometry y="0.5" width="50" height="50" as="geometry">
                        <mxPoint x="-13" y="13.5" as="sourcePoint"/>
                        <mxPoint x="39" y="-12.5" as="targetPoint"/>
                        <Array as="points">
                            <mxPoint y="0.5"/>
                            <mxPoint x="26" y="0.5"/>
                        </Array>
                    </mxGeometry>
                </mxCell>
                <mxCell id="323" value="&lt;span style=&quot;font-size: 14px ; text-align: center&quot;&gt;01&lt;/span&gt;" style="text;whiteSpace=wrap;html=1;labelBackgroundColor=none;" vertex="1" parent="321">
                    <mxGeometry x="5" width="16" height="26" as="geometry"/>
                </mxCell>
                <mxCell id="325" value="" style="group;labelBackgroundColor=none;" vertex="1" connectable="0" parent="1">
                    <mxGeometry x="1087" y="-852.5" width="26" height="26" as="geometry"/>
                </mxCell>
                <mxCell id="326" value="" style="endArrow=none;html=1;endFill=0;rounded=0;labelBackgroundColor=none;" edge="1" parent="325">
                    <mxGeometry y="0.5" width="50" height="50" as="geometry">
                        <mxPoint x="-13" y="13.5" as="sourcePoint"/>
                        <mxPoint x="39" y="-12.5" as="targetPoint"/>
                        <Array as="points">
                            <mxPoint y="0.5"/>
                            <mxPoint x="26" y="0.5"/>
                        </Array>
                    </mxGeometry>
                </mxCell>
                <mxCell id="327" value="&lt;span style=&quot;font-size: 14px ; text-align: center&quot;&gt;01&lt;/span&gt;" style="text;whiteSpace=wrap;html=1;labelBackgroundColor=none;" vertex="1" parent="325">
                    <mxGeometry x="5" width="16" height="26" as="geometry"/>
                </mxCell>
                <mxCell id="329" value="" style="group;labelBackgroundColor=none;" vertex="1" connectable="0" parent="1">
                    <mxGeometry x="1302" y="-728" width="26" height="26" as="geometry"/>
                </mxCell>
                <mxCell id="330" value="" style="endArrow=none;html=1;endFill=0;rounded=0;labelBackgroundColor=none;" edge="1" parent="329">
                    <mxGeometry y="0.5" width="50" height="50" as="geometry">
                        <mxPoint x="-13" y="13.5" as="sourcePoint"/>
                        <mxPoint x="39" y="-12.5" as="targetPoint"/>
                        <Array as="points">
                            <mxPoint y="0.5"/>
                            <mxPoint x="26" y="0.5"/>
                        </Array>
                    </mxGeometry>
                </mxCell>
                <mxCell id="331" value="&lt;span style=&quot;font-size: 14px ; text-align: center&quot;&gt;01&lt;/span&gt;" style="text;whiteSpace=wrap;html=1;labelBackgroundColor=none;" vertex="1" parent="329">
                    <mxGeometry x="5" width="16" height="26" as="geometry"/>
                </mxCell>
                <mxCell id="334" value="" style="group;labelBackgroundColor=none;" vertex="1" connectable="0" parent="1">
                    <mxGeometry x="1427" y="-728" width="26" height="26" as="geometry"/>
                </mxCell>
                <mxCell id="335" value="" style="endArrow=none;html=1;endFill=0;rounded=0;labelBackgroundColor=none;" edge="1" parent="334">
                    <mxGeometry y="0.5" width="50" height="50" as="geometry">
                        <mxPoint x="-13" y="13.5" as="sourcePoint"/>
                        <mxPoint x="39" y="-12.5" as="targetPoint"/>
                        <Array as="points">
                            <mxPoint y="0.5"/>
                            <mxPoint x="26" y="0.5"/>
                        </Array>
                    </mxGeometry>
                </mxCell>
                <mxCell id="336" value="&lt;span style=&quot;font-size: 14px ; text-align: center&quot;&gt;01&lt;/span&gt;" style="text;whiteSpace=wrap;html=1;labelBackgroundColor=none;" vertex="1" parent="334">
                    <mxGeometry x="5" width="16" height="26" as="geometry"/>
                </mxCell>
                <mxCell id="338" value="" style="group;labelBackgroundColor=none;" vertex="1" connectable="0" parent="1">
                    <mxGeometry x="1554" y="-728" width="26" height="26" as="geometry"/>
                </mxCell>
                <mxCell id="339" value="" style="endArrow=none;html=1;endFill=0;rounded=0;labelBackgroundColor=none;" edge="1" parent="338">
                    <mxGeometry y="0.5" width="50" height="50" as="geometry">
                        <mxPoint x="-13" y="13.5" as="sourcePoint"/>
                        <mxPoint x="39" y="-12.5" as="targetPoint"/>
                        <Array as="points">
                            <mxPoint y="0.5"/>
                            <mxPoint x="26" y="0.5"/>
                        </Array>
                    </mxGeometry>
                </mxCell>
                <mxCell id="340" value="&lt;span style=&quot;font-size: 14px ; text-align: center&quot;&gt;01&lt;/span&gt;" style="text;whiteSpace=wrap;html=1;labelBackgroundColor=none;" vertex="1" parent="338">
                    <mxGeometry x="5" width="16" height="26" as="geometry"/>
                </mxCell>
                <mxCell id="343" value="" style="group;labelBackgroundColor=none;" vertex="1" connectable="0" parent="1">
                    <mxGeometry x="1697" y="-728" width="26" height="26" as="geometry"/>
                </mxCell>
                <mxCell id="344" value="" style="endArrow=none;html=1;endFill=0;rounded=0;labelBackgroundColor=none;" edge="1" parent="343">
                    <mxGeometry y="0.5" width="50" height="50" as="geometry">
                        <mxPoint x="-13" y="13.5" as="sourcePoint"/>
                        <mxPoint x="39" y="-12.5" as="targetPoint"/>
                        <Array as="points">
                            <mxPoint y="0.5"/>
                            <mxPoint x="26" y="0.5"/>
                        </Array>
                    </mxGeometry>
                </mxCell>
                <mxCell id="345" value="&lt;span style=&quot;font-size: 14px ; text-align: center&quot;&gt;01&lt;/span&gt;" style="text;whiteSpace=wrap;html=1;labelBackgroundColor=none;" vertex="1" parent="343">
                    <mxGeometry x="5" width="16" height="26" as="geometry"/>
                </mxCell>
                <mxCell id="347" value="" style="group;labelBackgroundColor=none;" vertex="1" connectable="0" parent="1">
                    <mxGeometry x="1837" y="-156" width="26" height="26" as="geometry"/>
                </mxCell>
                <mxCell id="348" value="" style="endArrow=none;html=1;endFill=0;rounded=0;labelBackgroundColor=none;" edge="1" parent="347">
                    <mxGeometry y="0.5" width="50" height="50" as="geometry">
                        <mxPoint x="-13" y="13.5" as="sourcePoint"/>
                        <mxPoint x="39" y="-12.5" as="targetPoint"/>
                        <Array as="points">
                            <mxPoint y="0.5"/>
                            <mxPoint x="26" y="0.5"/>
                        </Array>
                    </mxGeometry>
                </mxCell>
                <mxCell id="349" value="&lt;span style=&quot;font-size: 14px ; text-align: center&quot;&gt;01&lt;/span&gt;" style="text;whiteSpace=wrap;html=1;labelBackgroundColor=none;" vertex="1" parent="347">
                    <mxGeometry x="5" width="16" height="26" as="geometry"/>
                </mxCell>
                <mxCell id="352" value="" style="group;labelBackgroundColor=none;" vertex="1" connectable="0" parent="1">
                    <mxGeometry x="1966" y="-156" width="26" height="26" as="geometry"/>
                </mxCell>
                <mxCell id="353" value="" style="endArrow=none;html=1;endFill=0;rounded=0;labelBackgroundColor=none;" edge="1" parent="352">
                    <mxGeometry y="0.5" width="50" height="50" as="geometry">
                        <mxPoint x="-13" y="13.5" as="sourcePoint"/>
                        <mxPoint x="39" y="-12.5" as="targetPoint"/>
                        <Array as="points">
                            <mxPoint y="0.5"/>
                            <mxPoint x="26" y="0.5"/>
                        </Array>
                    </mxGeometry>
                </mxCell>
                <mxCell id="354" value="&lt;span style=&quot;font-size: 14px ; text-align: center&quot;&gt;01&lt;/span&gt;" style="text;whiteSpace=wrap;html=1;labelBackgroundColor=none;" vertex="1" parent="352">
                    <mxGeometry x="5" width="16" height="26" as="geometry"/>
                </mxCell>
                <mxCell id="356" value="" style="group;labelBackgroundColor=none;" vertex="1" connectable="0" parent="1">
                    <mxGeometry x="2117" y="-156" width="26" height="26" as="geometry"/>
                </mxCell>
                <mxCell id="357" value="" style="endArrow=none;html=1;endFill=0;rounded=0;labelBackgroundColor=none;" edge="1" parent="356">
                    <mxGeometry y="0.5" width="50" height="50" as="geometry">
                        <mxPoint x="-13" y="13.5" as="sourcePoint"/>
                        <mxPoint x="39" y="-12.5" as="targetPoint"/>
                        <Array as="points">
                            <mxPoint y="0.5"/>
                            <mxPoint x="26" y="0.5"/>
                        </Array>
                    </mxGeometry>
                </mxCell>
                <mxCell id="358" value="&lt;span style=&quot;font-size: 14px ; text-align: center&quot;&gt;01&lt;/span&gt;" style="text;whiteSpace=wrap;html=1;labelBackgroundColor=none;" vertex="1" parent="356">
                    <mxGeometry x="5" width="16" height="26" as="geometry"/>
                </mxCell>
                <mxCell id="360" value="" style="group;labelBackgroundColor=none;" vertex="1" connectable="0" parent="1">
                    <mxGeometry x="2047" y="91" width="26" height="26" as="geometry"/>
                </mxCell>
                <mxCell id="361" value="" style="endArrow=none;html=1;endFill=0;rounded=0;labelBackgroundColor=none;" edge="1" parent="360">
                    <mxGeometry y="0.5" width="50" height="50" as="geometry">
                        <mxPoint x="-13" y="13.5" as="sourcePoint"/>
                        <mxPoint x="39" y="-12.5" as="targetPoint"/>
                        <Array as="points">
                            <mxPoint y="0.5"/>
                            <mxPoint x="26" y="0.5"/>
                        </Array>
                    </mxGeometry>
                </mxCell>
                <mxCell id="362" value="&lt;span style=&quot;font-size: 14px ; text-align: center&quot;&gt;01&lt;/span&gt;" style="text;whiteSpace=wrap;html=1;labelBackgroundColor=none;" vertex="1" parent="360">
                    <mxGeometry x="5" width="16" height="26" as="geometry"/>
                </mxCell>
                <mxCell id="368" value="&lt;font style=&quot;font-size: 18px&quot;&gt;N&lt;/font&gt;" style="edgeLabel;html=1;align=center;verticalAlign=middle;resizable=0;points=[];labelBackgroundColor=none;" vertex="1" connectable="0" parent="1">
                    <mxGeometry x="2261.0029901684993" y="-48.00461789379303" as="geometry"/>
                </mxCell>
                <mxCell id="370" value="" style="group;labelBackgroundColor=none;" vertex="1" connectable="0" parent="1">
                    <mxGeometry x="2257" y="91" width="26" height="26" as="geometry"/>
                </mxCell>
                <mxCell id="371" value="" style="endArrow=none;html=1;endFill=0;rounded=0;labelBackgroundColor=none;" edge="1" parent="370">
                    <mxGeometry y="0.5" width="50" height="50" as="geometry">
                        <mxPoint x="-13" y="13.5" as="sourcePoint"/>
                        <mxPoint x="39" y="-12.5" as="targetPoint"/>
                        <Array as="points">
                            <mxPoint y="0.5"/>
                            <mxPoint x="26" y="0.5"/>
                        </Array>
                    </mxGeometry>
                </mxCell>
                <mxCell id="372" value="&lt;span style=&quot;font-size: 14px ; text-align: center&quot;&gt;01&lt;/span&gt;" style="text;whiteSpace=wrap;html=1;labelBackgroundColor=none;" vertex="1" parent="370">
                    <mxGeometry x="5" width="16" height="26" as="geometry"/>
                </mxCell>
            </root>
        </mxGraphModel>
    </diagram>
</mxfile>